<svg xmlns="http://www.w3.org/2000/svg" width="16" height="14.001" viewBox="0 0 16 14.001">
  <g id="image-line" transform="translate(-0.889 -1.778)">
    <path id="パス_886" data-name="パス 886" d="M15.889,1.778h-14a1,1,0,0,0-1,1v12a1,1,0,0,0,1,1h14a1,1,0,0,0,1-1v-12a1,1,0,0,0-1-1Zm-14,13v-12h14v12Z" fill="#4aa9ac"/>
    <path id="パス_887" data-name="パス 887" d="M3.964,6.222A1.333,1.333,0,1,0,2.631,4.889,1.333,1.333,0,0,0,3.964,6.222Zm0-2.044a.711.711,0,1,1-.706.711.711.711,0,0,1,.706-.711Z" fill="#4aa9ac"/>
    <path id="パス_888" data-name="パス 888" d="M11.369,6.831l-2.8,2.4L6.5,7.453a.58.58,0,0,0-.731,0L2.631,10.178v1.258L6.15,8.418l1.7,1.44L5.911,11.525H7.338l4.38-3.756,3.393,2.9V9.414L12.1,6.832a.58.58,0,0,0-.731,0Z" transform="translate(0 1.005)" fill="#4aa9ac"/>
  </g>
</svg>
