<svg xmlns="http://www.w3.org/2000/svg" width="746.149" height="482.209" viewBox="0 0 746.149 482.209">
  <path id="パス_770" data-name="パス 770" d="M1137.463,500.578c19-47.581,6.422-106.057-49.028-139.345-66.076-39.667-161.927-30.051-243.79-18.046l-95.78,14.045C680.1,367.316,605.416,380,565.088,419.819c-16.161,15.957-25.263,35.01-34.158,53.775-16.872,35.585-33.831,71.44-40.617,109-3.457,19.133-4.838,39.748-21.107,54.807-12.722,11.778-35.021,22.308-29.778,37.223,2.368,6.736,10.095,11.934,17.436,16.692,28.5,18.464,58.326,37.488,94.72,45.765,23.461,5.335,48.172,5.828,72.458,6.043,79.474.7,159.868-1.183,234.9-17.085,73.66-15.613,146.216-46.786,183.9-95.038C1075.3,589.443,1119,546.817,1137.463,500.578Z" transform="translate(-358.55 -376.729) rotate(6)" fill="#d14a18" style="isolation: isolate"/>
</svg>
