<?xml version="1.0" encoding="utf-8"?>
<!-- Generator: Adobe Illustrator 26.5.0, SVG Export Plug-In . SVG Version: 6.00 Build 0)  -->
<svg version="1.1" id="レイヤー_1" xmlns="http://www.w3.org/2000/svg" xmlns:xlink="http://www.w3.org/1999/xlink" x="0px"
	 y="0px" viewBox="0 0 1642.5 1381.8" style="enable-background:new 0 0 1642.5 1381.8;" xml:space="preserve">
<style type="text/css">
	.st0{fill:#4AA9AC;}
	.st1{fill:#D14A18;}
	.st2{fill:#EEC333;}
	.st3{fill:#172879;}
</style>
<g id="柄BG_背景固定" transform="translate(178.797 378.118)">
	<path id="パス_773" class="st0" d="M-59.1,253.8c-66.8-75.1-101.3-175.3-117.3-275c-1.8-11.3-3.4-22.9-1.7-34.1
		c2.7-17.4,13.2-32.3,25.6-44c37.8-35.9,92.8-46.7,144.9-43.6c52.1,3.1,103.1,18.6,154.5,29c57.8,11.7,116.8,17.3,173.4,34.8
		C402.5-53.6,476.8-3.7,542.8,54.5c23.6,20.9,48,46.2,50.4,77.9c1.2,15.9-3.5,31.4-8.5,46.2c-8.7,26-18.7,51.9-33.5,74.5
		c-28.8,43.9-74.6,73.2-123.4,90C277.4,394.7,58.4,385.9-59.1,253.8z"/>
	<path id="パス_770" class="st1" d="M509.6,632.9c23.9-45.3,17.5-104.8-34.2-143.7c-61.6-46.4-157.9-46.8-240.6-43.4l-96.7,4
		c-69.4,2.8-145,7.6-189.3,43C-69,506.9-80,524.9-90.8,542.6c-20.5,33.6-41.1,67.5-51.8,104.2c-5.4,18.7-9,39-26.7,52.3
		c-13.9,10.4-37.2,18.5-33.5,33.9c1.7,6.9,8.8,12.9,15.6,18.4c26.4,21.3,54.1,43.4,89.4,55.4c22.8,7.8,47.3,10.8,71.4,13.6
		c79,9,159.1,15.5,235.4,7.6c74.9-7.8,150.3-31.2,192.8-75.3C438.4,714.8,486.4,676.9,509.6,632.9z"/>
	<path id="パス_772" class="st2" d="M1423.5-249.3c10.4,7.1,21,15.4,25.4,28.3c4.7,14.1,1.1,30.7-2.6,46.2l-51.5,215.7
		c-9.3,38.9-19.1,78.9-40.9,112.3c-16.6,25.3-39,45.1-61.8,63.5c-18.1,14.7-37.2,29.1-58.3,35.3c-24.2,7.1-48.8,2.8-72.5-1.5
		c-107.3-19.6-214.7-39.3-319.9-66.5c-19-4.9-39.7-11.5-49-30.2c-7.2-14.5-5.8-33.2-3.3-50.6c18.7-133,115.1-337.6,243.7-384.1
		c52.8-19.1,127.1-26.5,180.9-27.9C1288.7-310.8,1362.3-290.8,1423.5-249.3z"/>
	<path id="パス_771" class="st3" d="M1284.7,709.8c-7.4,27.9-16.3,55.8-30.5,80.3c-15.8,27.3-37.3,48.8-59,68.8
		c-30.5,28.2-62.6,54.7-96.2,79.4c-21.4,15.7-43.7,30.7-67,37.1c-26.7,7.3-53.2,2.7-78.3-4.2c-48-13.3-93.2-35.1-133.6-64.2
		c-18.4-13.2-36.9-29.5-42.8-55.7c-3.6-16-2-34,1-51.5c11.7-67.4,43.7-131.3,53.1-198.9c6.7-48.4,2.8-101.2,27.9-142.3
		c26.6-43.5,73.9-53.8,114.4-54.3c36.3-0.4,71.9,3.5,107.4,8c27.3,3.5,55.3,7.5,77.7,24.3c34.6,25.9,51.7,79,88.4,100.7
		c22.8,13.5,57.2,14.1,61,50.7C1311.9,621.7,1293.6,676.4,1284.7,709.8z"/>
</g>
</svg>
