<svg xmlns="http://www.w3.org/2000/svg" width="756.603" height="793.631" viewBox="0 0 756.603 793.631">
  <path id="パス_772" data-name="パス 772" d="M950.972,1151.17c-2.648,12.329-6.395,25.258-16.754,34.11-11.3,9.657-28.072,12.479-43.792,14.847l-219.239,33.044c-39.526,5.957-80.341,11.9-119.443,4.147-29.658-5.875-56.464-19.3-82.03-33.459-20.42-11.311-40.876-23.618-54.53-40.859-15.692-19.812-20.91-44.183-25.767-67.765-22-106.83-44.009-213.749-58.148-321.551-2.556-19.47-4.207-41.086,9.623-56.688,10.755-12.13,28.571-17.793,45.643-22.044,130.307-32.461,356.1-19.75,447.41,82.068,37.466,41.782,72.212,107.891,93.677,157.309C957.512,1003.139,966.5,1078.835,950.972,1151.17Z" transform="translate(-753.093 634.284) rotate(-68)" fill="#eec333" style="isolation: isolate"/>
</svg>
