<svg xmlns="http://www.w3.org/2000/svg" width="863.217" height="834.451" viewBox="0 0 863.217 834.451">
  <path id="パス_773" data-name="パス 773" d="M681.036,1133.579c-35.422-94.031-31.766-199.987-10.969-298.753,2.363-11.221,5.014-22.595,10.647-32.438,8.741-15.277,23.875-25.385,39.628-31.921,48.14-19.973,103.358-10.39,150.868,11.186s89.565,54.261,133.844,82.453c49.779,31.693,102.843,58,149.441,94.666,67.652,53.24,119.128,126.486,159.834,204.429,14.591,27.938,28.273,60.338,19.107,90.728-4.6,15.264-14.521,28.028-24.5,40.115-17.472,21.172-36,41.722-57.988,57.546-42.613,30.667-95.9,41.615-147.476,39.762C944.652,1385.65,743.332,1298.95,681.036,1133.579Z" transform="translate(-883.11 -230.166) rotate(-21)" fill="#4aa9ac" style="isolation: isolate"/>
</svg>
