<svg xmlns="http://www.w3.org/2000/svg" width="631.96" height="693.228" viewBox="0 0 631.96 693.228">
  <path id="パス_771" data-name="パス 771" d="M875.494,825.842c-1.091-28.791-.749-58.149,5.666-85.713,7.144-30.69,21.428-57.559,36.3-83.011A1115.175,1115.175,0,0,1,986.2,553.087c15.9-21.318,32.8-42.159,53.274-55.055,23.453-14.771,50.067-18.159,76.066-18.869A422.22,422.22,0,0,1,1262.1,501.444c21.439,7.227,43.963,17.449,57.228,40.739,8.113,14.247,11.856,31.973,14.065,49.531,8.535,67.855-3.406,138.389,7.374,205.69,7.723,48.22,26.922,97.555,14.864,144.212-12.756,49.361-54.976,73.026-93.513,85.321-34.542,11.019-69.8,17.635-105.044,23.709-27.112,4.674-55.088,8.972-81.459-.536-40.7-14.672-72.513-60.439-114.028-70.487-25.711-6.223-58.8,3.188-73.175-30.648C875.286,918.078,876.8,860.386,875.494,825.842Z" transform="translate(1160.058 1407.136) rotate(-163)" fill="#172879" style="isolation: isolate"/>
</svg>
