<svg xmlns="http://www.w3.org/2000/svg" width="18" height="16.641" viewBox="0 0 18 16.641">
  <g id="グループ_2194" data-name="グループ 2194" transform="translate(-804.294 -172.381)">
    <path id="パス_719" data-name="パス 719" d="M817.355,185.794a.664.664,0,0,0,.625-.7l.014-2.115a.625.625,0,1,0-1.241-.008l-.014,2.115A.664.664,0,0,0,817.355,185.794Z" transform="translate(-0.639 -0.594)" fill="#4f565d"/>
    <path id="パス_720" data-name="パス 720" d="M813.548,188.98l6.468.042a.656.656,0,0,0,.616-.687l.061-9.463.675.458a.574.574,0,0,0,.839-.238.743.743,0,0,0-.208-.948l-2.43-1.647a.729.729,0,0,0,.024-.172l.011-1.75a.6.6,0,1,0-1.182-.008l-.007,1.146-4.769-3.233a.553.553,0,0,0-.623,0l-8.424,5.555a.742.742,0,0,0-.221.945.6.6,0,0,0,.525.343.554.554,0,0,0,.311-.094l.681-.448-.061,9.463a.655.655,0,0,0,.607.7l3.286.021a.654.654,0,0,0,.616-.686l.028-4.255,2.6.017-.027,4.254A.654.654,0,0,0,813.548,188.98Zm-3.781-6.352a.655.655,0,0,0-.616.687l-.028,4.254-2.063-.013.062-9.517,6.2-4.091,6.15,4.17-.061,9.518-5.244-.034.028-4.254a.655.655,0,0,0-.607-.7Z" transform="translate(0 0)" fill="#4f565d"/>
  </g>
</svg>
