<svg xmlns="http://www.w3.org/2000/svg" width="16" height="17.143" viewBox="0 0 16 17.143">
  <g id="save" transform="translate(-1.125 -0.563)">
    <path id="パス_794" data-name="パス 794" d="M16.873,4.36,13.326.813a.851.851,0,0,0-.605-.25H1.982a.858.858,0,0,0-.857.857V16.848a.858.858,0,0,0,.857.857H16.268a.858.858,0,0,0,.857-.857V4.967a.851.851,0,0,0-.251-.606ZM11.41,1.706V5.134H6.268V1.706Zm4.571,14.856H2.268V1.706H5.125V6.277h7.429V1.706H12.6l3.379,3.379Z" fill="#fff"/>
    <path id="パス_795" data-name="パス 795" d="M8.859,7.875a3.234,3.234,0,1,0,3.234,3.234A3.234,3.234,0,0,0,8.859,7.875Zm0,5.344a2.109,2.109,0,1,1,2.109-2.109,2.109,2.109,0,0,1-2.109,2.109Z" transform="translate(0.121 0.187)" fill="#fff"/>
  </g>
</svg>
