<svg id="コンポーネント_41_3" data-name="コンポーネント 41 – 3" xmlns="http://www.w3.org/2000/svg" width="145" height="140" viewBox="0 0 145 140">
  <rect id="長方形_1235" data-name="長方形 1235" width="145" height="140" fill="#f8f8f8"/>
  <path id="パス_895" data-name="パス 895" d="M1.626,0V-14.493l9.9,10.354V-13.57H13.57V.826L3.674-9.5V0ZM16.163-4.342A4.254,4.254,0,0,1,17.49-7.5a4.447,4.447,0,0,1,3.234-1.3,4.472,4.472,0,0,1,3.252,1.31,4.358,4.358,0,0,1,1.318,3.217,4.335,4.335,0,0,1-1.327,3.226A4.536,4.536,0,0,1,20.689.246a4.35,4.35,0,0,1-3.226-1.318A4.434,4.434,0,0,1,16.163-4.342Zm2.021.035a2.887,2.887,0,0,0,.686,2.03,2.414,2.414,0,0,0,1.854.756,2.41,2.41,0,0,0,1.854-.747,2.814,2.814,0,0,0,.694-2,2.814,2.814,0,0,0-.694-2,2.414,2.414,0,0,0-1.854-.756,2.393,2.393,0,0,0-1.837.756A2.751,2.751,0,0,0,18.185-4.307ZM34.919-8.561V0H32.941V-8.561Zm-2.276-3.56a1.225,1.225,0,0,1,.378-.9,1.235,1.235,0,0,1,.905-.378,1.245,1.245,0,0,1,.914.378,1.216,1.216,0,0,1,.378.905,1.245,1.245,0,0,1-.378.914,1.216,1.216,0,0,1-.905.378,1.245,1.245,0,0,1-.914-.378A1.255,1.255,0,0,1,32.643-12.12Zm4.781,3.56H39.4v.791a4.132,4.132,0,0,1,.976-.809,2.367,2.367,0,0,1,1.081-.22,2.624,2.624,0,0,1,2.294,1.266A2.969,2.969,0,0,1,46.274-8.8q2.892,0,2.892,3.507V0H47.18V-4.755a3.668,3.668,0,0,0-.3-1.74,1.083,1.083,0,0,0-1.011-.519,1.289,1.289,0,0,0-1.191.615,3.962,3.962,0,0,0-.374,1.978V0H42.319V-4.729q0-2.285-1.318-2.285a1.321,1.321,0,0,0-1.217.624A3.892,3.892,0,0,0,39.4-4.421V0H37.424Zm20.549,0h1.986V0H57.973V-.9A3.793,3.793,0,0,1,55.345.246a3.786,3.786,0,0,1-2.936-1.283,4.772,4.772,0,0,1-1.151-3.27,4.625,4.625,0,0,1,1.151-3.208A3.711,3.711,0,0,1,55.292-8.8a3.64,3.64,0,0,1,2.681,1.23ZM53.279-4.307a2.982,2.982,0,0,0,.659,2,2.159,2.159,0,0,0,1.705.782,2.269,2.269,0,0,0,1.775-.756A2.927,2.927,0,0,0,58.1-4.263a2.927,2.927,0,0,0-.677-1.986,2.238,2.238,0,0,0-1.758-.765,2.186,2.186,0,0,0-1.705.773A2.851,2.851,0,0,0,53.279-4.307ZM70.734-.2q0,.606-.04,1.068a7.421,7.421,0,0,1-.11.813,3.62,3.62,0,0,1-.826,1.661,4,4,0,0,1-3.19,1.336,4.258,4.258,0,0,1-2.821-.923,3.772,3.772,0,0,1-1.318-2.628h1.986a2.249,2.249,0,0,0,.378.976,2.124,2.124,0,0,0,1.793.8q2.171,0,2.171-2.663v-1.2a3.693,3.693,0,0,1-2.716,1.2A3.647,3.647,0,0,1,63.176-1.02a4.69,4.69,0,0,1-1.125-3.208A4.938,4.938,0,0,1,63.1-7.409,3.635,3.635,0,0,1,66.067-8.8a3.45,3.45,0,0,1,2.689,1.2v-.967h1.978Zm-1.9-4.061a2.882,2.882,0,0,0-.668-2,2.208,2.208,0,0,0-1.731-.765,2.129,2.129,0,0,0-1.775.835,3.031,3.031,0,0,0-.589,1.934,3,3,0,0,0,.589,1.916,2.131,2.131,0,0,0,1.775.817,2.171,2.171,0,0,0,1.793-.826A2.943,2.943,0,0,0,68.836-4.263Zm12.19.448H74.892a2.6,2.6,0,0,0,.686,1.679,2.09,2.09,0,0,0,1.556.615,2.024,2.024,0,0,0,1.222-.352,5,5,0,0,0,1.081-1.3l1.67.932a6.643,6.643,0,0,1-.817,1.129,4.346,4.346,0,0,1-.923.773A3.7,3.7,0,0,1,78.3.105a5.177,5.177,0,0,1-1.239.141,4.03,4.03,0,0,1-3.076-1.23,4.615,4.615,0,0,1-1.16-3.287,4.743,4.743,0,0,1,1.125-3.287A3.879,3.879,0,0,1,76.957-8.8a3.844,3.844,0,0,1,2.988,1.2,4.736,4.736,0,0,1,1.09,3.313ZM79-5.432a1.894,1.894,0,0,0-2-1.582,2.049,2.049,0,0,0-.677.11,1.936,1.936,0,0,0-.576.316,2.006,2.006,0,0,0-.444.5,2.308,2.308,0,0,0-.281.659Z" transform="translate(32 75)" fill="#ccc"/>
</svg>
