<svg xmlns="http://www.w3.org/2000/svg" width="187.616" height="57.278" viewBox="0 0 187.616 57.278">
  <g id="グループ_3385" data-name="グループ 3385" transform="translate(-27.203 -624.04)">
    <path id="パス_10564" data-name="パス 10564" d="M31.58,629.593l.414-.354.486.05a1.11,1.11,0,0,0,.705-.228,1.112,1.112,0,0,1,.475-.254.915.915,0,0,0,.437-.253,1.5,1.5,0,0,1,.742-.317,1.274,1.274,0,0,0,.7-.317.993.993,0,0,1,.5-.292,3.957,3.957,0,0,0,.645-.216l2.213-.71a1.1,1.1,0,0,1,.267.1h.1a.876.876,0,0,0,.571-.24.988.988,0,0,1,.668-.242,3.115,3.115,0,0,0,.949-.3l.146.152q.389-.456.657-.456H42.4a3.877,3.877,0,0,1,.437.1,3.282,3.282,0,0,1,1-.2l.559-.051a.359.359,0,0,1,.146.051.835.835,0,0,1,.536-.28h.267l1-.253.292.1a1.345,1.345,0,0,1,.9-.254h.243l.243.051a3.066,3.066,0,0,0,.45-.153,7.371,7.371,0,0,1,1.957-.152l.633.1a5.612,5.612,0,0,1,.656-.253l.681.151.267-.1h.1a.869.869,0,0,1,.243.1h.049l1.75-.253a.778.778,0,0,1,.195.051.557.557,0,0,1,.291-.178l.463.127a1.745,1.745,0,0,0,.681-.279l.146.152,1.653-.2.608.051.535-.1a1.543,1.543,0,0,1,1.2.445,1.344,1.344,0,0,1,.4.9l.1.786-.146.432-.048.507a.681.681,0,0,1-.365.4q0,.051-.219.114a1.506,1.506,0,0,0-.437.216,3.623,3.623,0,0,1-1.434.152.754.754,0,0,1-.778-.393c-.113-.262-.235-.409-.364-.444l-1.045-.457a.5.5,0,0,0-.292-.049h-.195l-1,.1a1.7,1.7,0,0,1-.267-.051,2.835,2.835,0,0,1-.341.153l-1.8-.1-.73.051-.51-.1a1.363,1.363,0,0,0-.34.077,5.466,5.466,0,0,1-1.021.126q-.777.052-.777.507a1.164,1.164,0,0,0,.206.61,1.1,1.1,0,0,1,.207.532,1.876,1.876,0,0,0-.365.685,4.059,4.059,0,0,0-.34.329c-.163.17-.462.435-.9.8a3.657,3.657,0,0,0-.9,1q-.243.456-.583.456a2.983,2.983,0,0,0-.608.787l-.195.2a.357.357,0,0,0-.048.227.444.444,0,0,1-.146.3l-.219.608a6.47,6.47,0,0,0-1,1.319l-.292.152-.291.355h-.341c-.146,0-.218.1-.218.3l.1.736a2.289,2.289,0,0,0-.583.887l-.292.507a3.638,3.638,0,0,0-.51.583,5.844,5.844,0,0,1-.487,1.091l-.048.253a8.015,8.015,0,0,1-1.7,2.485,3.828,3.828,0,0,0-.291,1.471q-.73,1.5-1,1.445a4.752,4.752,0,0,1-.3,1.572q-.257.609-.657,1.788a5.252,5.252,0,0,1-.84,1.685l-.1.2a2.67,2.67,0,0,1-.243.406,12.686,12.686,0,0,1-.462,2.18l-.146,1.091-.486,1.42a.692.692,0,0,0-.073.3,1.086,1.086,0,0,0,.158.393,1.179,1.179,0,0,1,.036,1.115,1.161,1.161,0,0,0-.121.571,1.018,1.018,0,0,1-.8,1.04H33.9l-.51.051a2.372,2.372,0,0,1-1.849-1.015,4.293,4.293,0,0,1-.827-2.789,7.21,7.21,0,0,1,.146-.774c.1-.447.154-.739.171-.874a1.428,1.428,0,0,1,.121-.419,1.554,1.554,0,0,0,.1-.621,3.847,3.847,0,0,1,.6-2.155,13.634,13.634,0,0,0,.79-1.318.317.317,0,0,1,.17-.229,1.5,1.5,0,0,1-.073-.507,1.419,1.419,0,0,1,.608-1.191,2.606,2.606,0,0,1,.17-.47q.121-.266.511-1.293t1.021-1.2c-.016-.033.081-.169.292-.405l-.1-.888q0-.2.438-.684l.413-.71a1.346,1.346,0,0,1,.633-.786.6.6,0,0,1,.316-.3c.016-.068.085-.278.207-.634a5.228,5.228,0,0,1,.778-1.331q.6-.8,1.143-1.66t1-.888c.3-.016.466-.194.5-.532l.146-.939a5,5,0,0,0,.851-.887l.34-.406a.843.843,0,0,1,.256-.469,1.984,1.984,0,0,0,.4-.469,2.8,2.8,0,0,1,.608-.634,3.4,3.4,0,0,1,1.435-1.8l.389-.431a4.04,4.04,0,0,1,.681-.824,1.3,1.3,0,0,0,.4-.571.944.944,0,0,1,.523-.532c.26-.118.389-.254.389-.4,0-.068-.065-.1-.194-.1a2.461,2.461,0,0,0-.657.153h-.194l-.438.1h-.146l-.414-.1a2.287,2.287,0,0,1-.681.151,2.533,2.533,0,0,1-.316.228h-.535l-.292.3L43,628.1l-.632-.1a1.271,1.271,0,0,0-.705.3,2.521,2.521,0,0,1-.79.178,5.371,5.371,0,0,0-1.5.469,3.392,3.392,0,0,1-.851.342l-.438-.1h-.048a.757.757,0,0,0-.584.329,1.174,1.174,0,0,1-.778.406h-.292a2.443,2.443,0,0,0-.985.3,5.425,5.425,0,0,1-.669.3l-.439-.05a2.346,2.346,0,0,1-.5.279,1.346,1.346,0,0,0-.4.24,1.357,1.357,0,0,1-.39.241,1.842,1.842,0,0,0-.451.28.749.749,0,0,1-.4.2h-.1l-.292-.051c-.114,0-.26.107-.438.317a1.205,1.205,0,0,1-.5.393,1.433,1.433,0,0,0-.438.241.831.831,0,0,1-.426.191,2.647,2.647,0,0,0-.341.557,2.656,2.656,0,0,1-.56.748,2.785,2.785,0,0,0-.451.495q-.109.177-.207.177-1.193,0-1.193-1.547l.486-1.089a2.366,2.366,0,0,1,1.557-1.573,4.986,4.986,0,0,0,1.386-.557Z"/>
    <path id="パス_10565" data-name="パス 10565" d="M46.062,649.345l.195-.279a1.107,1.107,0,0,0,.806-.507,10.148,10.148,0,0,1,1.222-1.318q1.146-1.142,1.27-1.217a10.427,10.427,0,0,0,.945-2.206c.194-.1.291-.22.291-.356l.194-.4.218-.051.1-.1v-.228a6.635,6.635,0,0,1,.946-2.13q.947-2.054,1.02-2.269a4.782,4.782,0,0,1,.292-.634c.146-.279.368-.816.67-1.611a10.555,10.555,0,0,1,1.4-2.484,1.473,1.473,0,0,0,.291-.571,3.683,3.683,0,0,1,.609-1.027l.29-.532c.1-.169.268-.465.511-.887a7.433,7.433,0,0,1,.669-1,2.771,2.771,0,0,0,.463-.773,1.389,1.389,0,0,1,.376-.584,1.941,1.941,0,0,0,.451-.646.754.754,0,0,1,.716-.469,1.439,1.439,0,0,1,1.374.811,3.137,3.137,0,0,1,.426,1.42q0,.077-.292,1.09l-.364,2.282c-.325.169-.486.364-.486.583a4.932,4.932,0,0,1-1,2.789,1.5,1.5,0,0,0-.157.66,1.448,1.448,0,0,1-.426.913,3.078,3.078,0,0,0-.656,1.191l-2.262,3.372-.195.2a1.43,1.43,0,0,0-.34.431l-.389-.126c-.438,0-.658.144-.658.431a1.223,1.223,0,0,0,.1.405v.051q0,.025-1.8,2.663a5.948,5.948,0,0,0-.34.988l-.34.761a5.049,5.049,0,0,0-.717,1.432,3.333,3.333,0,0,1-.547,1.128c-.326.761-.487,1.159-.487,1.193a.131.131,0,0,0,.146.151q.146,0,.694-.76a4.6,4.6,0,0,1,.9-1.014,2.049,2.049,0,0,0,.6-.71l.243-.178a3.375,3.375,0,0,0,.415-.3l.244.051a.634.634,0,0,0,.243-.355.664.664,0,0,1,.146-.3.865.865,0,0,0,.791-.482c.106-.27.232-.406.379-.406.129,0,.3-.156.511-.469a2.3,2.3,0,0,1,.89-.76,5.042,5.042,0,0,0,.852-.521,4.58,4.58,0,0,1,1.132-.545,4.239,4.239,0,0,1,1.146-.316h.146l.194.051.367-.051a3.365,3.365,0,0,1,1.7.494,1.434,1.434,0,0,1,.729,1.534l-.195,1.572-.266,1.243a12.313,12.313,0,0,1-.389,1.343,7.775,7.775,0,0,0-.341,1.192l-.1.481.1.659-.049.534c0,.169.08.253.243.253.064,0,.242-.153.533-.456.177.034.347-.068.508-.3a4.425,4.425,0,0,1,.656-.735c0-.068.1-.13.314-.19a2.607,2.607,0,0,0,.873-.6,4.651,4.651,0,0,1,.945-.976,8.445,8.445,0,0,1,1.625-1.154l.146-.2a1.121,1.121,0,0,1,.75-.431q.34,0,.34.381a1.318,1.318,0,0,1-.123.532,2.525,2.525,0,0,0-.169.722,4.055,4.055,0,0,1-.486,1.281l-.1.254q-.168.43-.413.506a1.211,1.211,0,0,0-.521.419,2.649,2.649,0,0,1-1.154.647q-.388.761-.607.761l-.438-.2a1.2,1.2,0,0,0-.509.887,6.058,6.058,0,0,0-.754.736l-.486-.051c-.129,0-.194.185-.194.557,0,.035-.165.149-.5.342a5.427,5.427,0,0,0-.765.521,1.922,1.922,0,0,1-1.141.227.545.545,0,0,1-.292-.177,1.62,1.62,0,0,0-.571-.3.833.833,0,0,1-.522-.6,3.111,3.111,0,0,0-.316-.735.884.884,0,0,1-.17-.418l.049-.508-.122-.532.219-.356a1.616,1.616,0,0,1-.146-.481l.244-1.547a16.722,16.722,0,0,1,.437-2.18.559.559,0,0,0,.049-.3l-.049-.634.049-.356c0-.253-.082-.388-.243-.4s-.261-.06-.292-.127a1.839,1.839,0,0,0-.366-.152q-.2,0-.341.317a2.073,2.073,0,0,1-.389.57l-.609-.1v.051q0,.2-.657.786a2,2,0,0,0-1.047.659,1.432,1.432,0,0,0-.67.394,3.073,3.073,0,0,1-.62.443l-.195.4-.389.127a1.019,1.019,0,0,1-.805.659l-.243.482a.8.8,0,0,0-.706.546c-.129.329-.227.494-.292.494a.379.379,0,0,1-.158-.064.421.421,0,0,0-.207-.063q-.537,0-.584.837a7.446,7.446,0,0,1-1,1.191,13.41,13.41,0,0,1-1.071,1.116c-.049.017-.144.19-.282.52a1.559,1.559,0,0,1-.571.735,6.579,6.579,0,0,0-.548.393.53.53,0,0,1-.28.152q-.51,0-.827-.761c-.212-.506-.317-.768-.317-.786l.146-.532-.048-.456q0-.026.3-1.027a5.817,5.817,0,0,1,.694-1.573,4.9,4.9,0,0,0,.607-1.863,4.557,4.557,0,0,1-1.314.761c-.325,0-.486-.22-.486-.659a3.431,3.431,0,0,1,.757-2.181"/>
    <path id="パス_10566" data-name="パス 10566" d="M85.761,652.033l.388-.354a.4.4,0,0,0,.436-.343.816.816,0,0,1,.521-.545,2.029,2.029,0,0,0,.837-.824q.389-.621.8-.622c.1,0,.211.085.339.254a.756.756,0,0,1,.195.406,3.576,3.576,0,0,1-.487,1.724l-.1.71-.17.329a1.09,1.09,0,0,0-.474.432,1.8,1.8,0,0,1-.571.558l-.243.354a1.122,1.122,0,0,0-.718.583.686.686,0,0,1-.51.457,1.313,1.313,0,0,0-.718.507,3.224,3.224,0,0,1-.583.228l-.049.253a1.7,1.7,0,0,1-.766.407,4.131,4.131,0,0,0-.778.291.938.938,0,0,1-.352.139,1.907,1.907,0,0,1-.851-.19,2.537,2.537,0,0,0-.8-.24.591.591,0,0,1-.171-.33,1.129,1.129,0,0,0-.243-.469,1.3,1.3,0,0,1-.218-.8l.1-.481a.453.453,0,0,0-.121-.254.445.445,0,0,1-.122-.254.217.217,0,0,1,.048-.152.21.21,0,0,0,.049-.152.907.907,0,0,0-.049-.279.88.88,0,0,1-.048-.253l.146-1.243c0-.1-.033-.152-.1-.152s-.182.085-.352.253a.818.818,0,0,1-.6.254,1.177,1.177,0,0,0-.317.634,2.149,2.149,0,0,1-.486.456l-.1.152c-.033.118-.155.216-.365.292a.87.87,0,0,0-.438.291l-.243.254-.462-.051a3.785,3.785,0,0,0-.268.444,2.02,2.02,0,0,1-.559.647l-1.849,1.572q-.292.2-.851.507l-.146.152a6.274,6.274,0,0,1-2.749,1.343,3.933,3.933,0,0,1-1.533-.379q-.875-.381-.948-.913l-.243-1.04a1.881,1.881,0,0,1-.219-.989,1.075,1.075,0,0,1,.049-.4v-.152l-.049-.837c0-.2.153-.3.462-.3l-.049-.685a7.255,7.255,0,0,1,1-1.6l.243-.33a.848.848,0,0,1,.341-.647,3.427,3.427,0,0,0,.585-.7,3.036,3.036,0,0,1,.828-.786l.73-.761a7.433,7.433,0,0,1,1.851-1.42,2.445,2.445,0,0,0,.6-.507,2.849,2.849,0,0,1,1.023-.672,6.761,6.761,0,0,0,1.12-.545,1.877,1.877,0,0,1,.865-.33h.195a9.858,9.858,0,0,0,1.29-.633h.146a1.475,1.475,0,0,1,.463.2h.049l.39-.2a.515.515,0,0,1,.243-.051q1.509,0,1.656,2.18.048.457.243.458.243,0,.694-.926a1.908,1.908,0,0,1,1.91-.926q1.045,0,1.046,1.394a4.474,4.474,0,0,1-1.41,3.12,1.834,1.834,0,0,0-.146.456l-.341,1.04v.051a.791.791,0,0,1-.207.417.808.808,0,0,0-.206.469l.048.634-.1.71a.856.856,0,0,0,.17.634,1.969,1.969,0,0,0,1.127-.672,1.722,1.722,0,0,1,.5-.52l.243-.1a2.442,2.442,0,0,1,.509-.634m-8.076,0a1.186,1.186,0,0,1,.6-.85,1.215,1.215,0,0,0,.6-.595A12.976,12.976,0,0,0,80.2,649.32q.862-.912.863-1.115c0-.051-.032-.076-.1-.076H80.92l-.194.127-.438-.051-.462.051-.341-.178-.316.051-.486-.1a1.291,1.291,0,0,0-.669.165,4.622,4.622,0,0,1-1.071.367,3.855,3.855,0,0,0-1.423.7,1.908,1.908,0,0,1-.924.495,3.757,3.757,0,0,1-1.143,1.09,1.152,1.152,0,0,0-.754.887q-.633.532-.633.609l-.17.43a1.545,1.545,0,0,1-.486.292.583.583,0,0,0-.341.533,1.451,1.451,0,0,1-.328.76,1,1,0,0,0-.28.545q0,1.242.462,1.242a2.781,2.781,0,0,0,.815-.265,3.163,3.163,0,0,0,.717-.368,1.046,1.046,0,0,1,.389-.2l.463-.253a.415.415,0,0,1,.219-.127.468.468,0,0,0,.243-.165,1.553,1.553,0,0,1,.437-.3,1.207,1.207,0,0,0,.487-.444q.414-.252,1.338-.786l.511-.406a1.805,1.805,0,0,0,.657-.431,1.251,1.251,0,0,1,.486-.355"/>
    <path id="パス_10567" data-name="パス 10567" d="M110.011,653.6h.1l.244.1a.135.135,0,0,0,.1-.051.908.908,0,0,1,.391-.736,1.152,1.152,0,0,1,.548-.735q.426-.254,1.353-.837l.609-.557.293-.153.195-.253a.721.721,0,0,1,.512-.33q.366,0,.366.279l-.22.507.1.837a1.216,1.216,0,0,1-.305.812q-.3.354-.937,1.039L112.11,654.9l-.658.355a2.324,2.324,0,0,0-.438.355l-.95.837a.643.643,0,0,1-.219.532h-.39l-.194.1a2.014,2.014,0,0,1-1,.938l-.341.253a.493.493,0,0,1-.316.152l-.682-.1-.463.1a1.1,1.1,0,0,1-.524-.2,3.223,3.223,0,0,0-.669-.316q-.34-.114-.865-.939a4.483,4.483,0,0,1-.572-1.077,1.017,1.017,0,0,0-.11-.343,1.163,1.163,0,0,1-.109-.291,3.128,3.128,0,0,1,.219-.507V654.7a1.246,1.246,0,0,0-.134-.355,1.574,1.574,0,0,1-.134-.684,1.615,1.615,0,0,0-.146-.583c.13-.136.195-.237.195-.3a.884.884,0,0,0-.073-.291.894.894,0,0,1-.073-.292l.146-1.242-.1-.634.048-.608c0-.356-.145-.533-.436-.533a.8.8,0,0,0-.485.279l-.169.051a5.573,5.573,0,0,0-.921.544.877.877,0,0,1-.558.216,1.325,1.325,0,0,1-.557.279l-.194.152a2.885,2.885,0,0,1-.388.3,5.555,5.555,0,0,1-.908.849q-.909.774-1.637,1.457a2.853,2.853,0,0,1-1.054.748c-.218.043-.327.258-.327.647,0,.068-.146.2-.436.406a3.228,3.228,0,0,0-.509.558,2.11,2.11,0,0,0-.436-.3q-.318,0-.464.836-.146.33-.78.406a1.114,1.114,0,0,0-.171.38l-.1.1h-.244q-.048,0-.341.292a1.493,1.493,0,0,1-.512.367q-.318.684-.537.684a.642.642,0,0,1-.28-.1,2.078,2.078,0,0,0-.451-.177q-.269-.076-.6-.622a1.9,1.9,0,0,1-.328-.925q0-2.816,1.046-3.068l.049-.1v-.2a.484.484,0,0,1,.279-.47,1.661,1.661,0,0,0,.572-.557,1.917,1.917,0,0,1,.389-.469H92.4q.1,0,.1-.533a.394.394,0,0,1,.122-.279.606.606,0,0,0,.146-.368,2.323,2.323,0,0,1,.353-.786,2.488,2.488,0,0,0,.328-.646l-.049-.1a2.369,2.369,0,0,1-.875.634c-.179.034-.422.278-.73.735l-.389-.076a9.357,9.357,0,0,1-1.267.887,1.4,1.4,0,0,0-.536.584.2.2,0,0,1-.171.2,2.686,2.686,0,0,0-.634.406h-.146q-.611,0-.611-.913l.511-1.445a2.108,2.108,0,0,1,1.032-1.154,12.144,12.144,0,0,0,1.373-.9,1.986,1.986,0,0,1,1.119-.456l.17-.254a1.893,1.893,0,0,0,1.117-1.039q.292-.711.8-.71a2.323,2.323,0,0,1,2.041,1.026,3.243,3.243,0,0,1,.705,1.636l.048.685a4.727,4.727,0,0,1-.145.988,1.5,1.5,0,0,0-.292.685c0,.135.081.2.243.2a.687.687,0,0,0,.389-.216,3.444,3.444,0,0,1,.547-.393.813.813,0,0,0,.352-.3,1.411,1.411,0,0,1,.85-.836,2.424,2.424,0,0,0,.754-.381l.242-.2.195-.38a2.733,2.733,0,0,0,.875-.558,1.019,1.019,0,0,1,.583-.33,2.019,2.019,0,0,0,.826-.456l.365-.1.34-.2a.855.855,0,0,1,.291-.126q.243-.075.717-.266a2.2,2.2,0,0,1,.644-.191,2.255,2.255,0,0,1,1.956,1.04,3.282,3.282,0,0,1,.717,1.673l-.049.457.1.685v.1l-.195,1.4.049.481a2.222,2.222,0,0,1-.486,1.648c-.082.034-.122.119-.122.254v.228l.486,1.065c.146.372.26.557.341.557l.78-.227a.959.959,0,0,0,.561-.532,3.642,3.642,0,0,0,.683-.61c.1-.269.252-.405.463-.405"/>
    <path id="パス_10568" data-name="パス 10568" d="M113.548,651.146v-.1l.146-.152a1.019,1.019,0,0,1,.279-.494,2.091,2.091,0,0,0,.352-.546.567.567,0,0,1,.243-.3.857.857,0,0,0,.3-.368,1.4,1.4,0,0,1,.571-.519l2.477-3.271c.275-.355.477-.6.607-.735a8.456,8.456,0,0,0,1.287-2.486,1.274,1.274,0,0,1,.291-.3,21.707,21.707,0,0,0,1.122-2.815l.243-.406q.024-.077.415-.823a5.52,5.52,0,0,1,.573-.951,2.407,2.407,0,0,0,.353-.939l.536-1.115q.219-.507.657-1.623a1.95,1.95,0,0,0,.608-.278.478.478,0,0,0-.073-.229c-.049-.085-.09-.16-.122-.228a1.1,1.1,0,0,1,.389-.584l.1-.1a1.061,1.061,0,0,1,.195-.4l.049-.153a5.337,5.337,0,0,1,1.131-1.7,1.959,1.959,0,0,1,1.325-.684q.583,0,.656.457a2.366,2.366,0,0,0,.232.748,1.236,1.236,0,0,1,.158.595v.634l-.146,2.181a.6.6,0,0,1-.219.735l-1,2.789c-.081.017-.252.278-.511.786l-.365.736a3.669,3.669,0,0,1-.9,1.343l-.146.2c-.178.27-.332.406-.462.406a1.415,1.415,0,0,1-.425,1.052,2.865,2.865,0,0,0-.645.938,1.646,1.646,0,0,1-.826.824q-.195.406-.487.888l-1.095,1.546a4.759,4.759,0,0,0-.668,1.534,4.706,4.706,0,0,1-.475,1.28l-.1.254c-.373.238-.559.38-.559.431q0,.128-.1.811a3.146,3.146,0,0,1-.243.583l.049.559-.316.05a1.515,1.515,0,0,0-.146.431v.507l.049.051c.064,0,.137-.118.218-.354a6.667,6.667,0,0,1,.876-.534l.17-.1a1.7,1.7,0,0,1,.389-.76l.487-.685.705-.634a8.327,8.327,0,0,0,1-1.09.148.148,0,0,1,.049-.1l.341.051.169-.1-.072-.457c.015-.016.137-.118.364-.3l.755-.786.389-.3.5-.457a.844.844,0,0,1,.5-.278l.291.1a2.3,2.3,0,0,1,1.29-1.218,5.533,5.533,0,0,1,1.168-.456l1.386.33a4.774,4.774,0,0,0,.839.6q.645.393.645,1.94a2.97,2.97,0,0,1-.292.786l.049.456q0,.152-.39.533l-.146.507-1.411,1.344a1.6,1.6,0,0,1-.5.252,1.475,1.475,0,0,0-.523.3,7.224,7.224,0,0,1-1.193.7c-.616.314-.924.571-.924.774a1.877,1.877,0,0,0,.329.57,5.07,5.07,0,0,1,.474.8,2.918,2.918,0,0,0,.548.761,1.4,1.4,0,0,0,.693.481,4.548,4.548,0,0,1,.608.153,1.425,1.425,0,0,1,.438-.216,1.739,1.739,0,0,0,.608-.367l.341-.1a.593.593,0,0,0,.474-.3,1.935,1.935,0,0,1,.693-.6,3.089,3.089,0,0,0,.888-.787c.219-.295.417-.443.6-.443h.292c.227,0,.356-.169.389-.507a2.794,2.794,0,0,0,.949-.646,2.369,2.369,0,0,1,.657-.546l.146-.1q.657-.735,1.1-.735a.346.346,0,0,1,.34.253,6.112,6.112,0,0,0-.2,1.167,3.187,3.187,0,0,1-.279.912,4.918,4.918,0,0,1-.3.685l-.268-.1h-.049a.4.4,0,0,0-.291.178.688.688,0,0,1-.292.228.688.688,0,0,0-.3.3,1.011,1.011,0,0,1-.5.393,1.36,1.36,0,0,0-.547.393,2.362,2.362,0,0,1-.3.33,1.288,1.288,0,0,0-.194.191.98.98,0,0,1-.219.189,1.36,1.36,0,0,0-.3.3,1.458,1.458,0,0,1-.475.38,1.022,1.022,0,0,0-.449.469.943.943,0,0,1-.414.444,7.593,7.593,0,0,0-.717.43l-.657.483a1.063,1.063,0,0,1-.292.152h-.073l-.243-.051c-.065,0-.1.051-.1.152-.2.288-.374.431-.535.431a1.738,1.738,0,0,0-.669.178,1.7,1.7,0,0,1-.6.177,6.172,6.172,0,0,1-1.289-.253,1.166,1.166,0,0,0-.438-.33c-.162-.068-.365-.38-.608-.939l-.34-.3a8.317,8.317,0,0,1-1.338-2.586l-.219-.3q-.779-.177-.778-.786a2.96,2.96,0,0,1,.292-.736l.243-.152a.584.584,0,0,1,.352-.354.59.59,0,0,0,.353-.369.469.469,0,0,1,.438-.316h.1a3.1,3.1,0,0,1,.669-.545,2.7,2.7,0,0,0,.535-.393,3.452,3.452,0,0,1,1.07-.507q.864-.3.863-1.927c0-.1-.081-.169-.243-.2a2.381,2.381,0,0,0-1.045.659.951.951,0,0,0-.754.52q-.269.47-.487.469l-.462-.05q-.146,0-.292.418t-.389.418h-.194l-.317.152-.1.406q-.56.634-.9.634l-.194.583a2.511,2.511,0,0,0-.9.761l-.146.1a3.8,3.8,0,0,0-.292.38.322.322,0,0,1-.292.152,1.691,1.691,0,0,0-.559.837c-.195,0-.325.157-.389.469s-.2.469-.414.469h-.194a2.075,2.075,0,0,1-.414.722,2.8,2.8,0,0,0-.389.419,2.532,2.532,0,0,0-.34.558,1.686,1.686,0,0,1-.487.583,7.124,7.124,0,0,0-.559.507l-.389.254a3.494,3.494,0,0,0-.414.33.324.324,0,0,1-.243.1,1.274,1.274,0,0,1-.693-.392c-.3-.262-.45-.46-.45-.6a6.21,6.21,0,0,1,.243-2.079l.657-1.775a6.752,6.752,0,0,1,.693-1.42,2,2,0,0,0,.4-.862c0-.237-.081-.355-.243-.355a7.579,7.579,0,0,1-1.119,1.04q-1.386-.177-1.386-.583"/>
    <path id="パス_10569" data-name="パス 10569" d="M166.606,652.439v.278l.048.2v.1c0,.034-.032.229-.1.583a1.84,1.84,0,0,0-.413,1.141l-.292.457a.7.7,0,0,1-.231.557,1.711,1.711,0,0,0-.4.812c-.114.4-.252.837-.414,1.293l-.559,1.445c0,.068.032.1.1.1a.44.44,0,0,0,.158-.051.492.492,0,0,1,.207-.051.414.414,0,0,1,.194.051.362.362,0,0,0,.147.051,1.542,1.542,0,0,0,.353-.178,1.845,1.845,0,0,1,.7-.228l.9-.228a4.451,4.451,0,0,1,1.194-.1l.756-.05a3.884,3.884,0,0,1,1.816.481,2.389,2.389,0,0,1,1.146,1.015,4.653,4.653,0,0,1,.232,1.723c0,.625-.2.939-.609.939a1.65,1.65,0,0,1-.938-.482,2.469,2.469,0,0,1-.791-1.217q-.219-.737-.706-.736l-.609-.2-.341.1h-.1a1.542,1.542,0,0,1-.438-.153h-.073l-.73.2h-1l-.463.254a4.64,4.64,0,0,1-.743.153,2.277,2.277,0,0,0-.718.2c-.212.1-.317.193-.317.278a1.706,1.706,0,0,1-.657,1.344,1.709,1.709,0,0,0-.268.646,1.02,1.02,0,0,1-.28.534,4.013,4.013,0,0,0-.548.9l-.2.356a.5.5,0,0,0-.1.252.855.855,0,0,0,.05.2v.228a1.756,1.756,0,0,1-.8,1.344v.254q0,.2-.39.583l.1.507c0,.067-.09.207-.268.418a3.138,3.138,0,0,0-.451.71,1.661,1.661,0,0,1-.693.7v.152l.146.3c.049,0,.073.033.073.1,0,.118-.122.3-.365.533a2.594,2.594,0,0,1-.341.786l-1,1.394a1.115,1.115,0,0,0-.244.558l-.17.481a1.4,1.4,0,0,0-.377.47,6.894,6.894,0,0,1-.645.95q-.536.711-.706.71a1.638,1.638,0,0,1,.146.356,1.221,1.221,0,0,1-.389.735q-.633,0-.633.278l.122.507c0,.068-.09.169-.268.3a.812.812,0,0,1-.438.2h-.341l.1.456a.642.642,0,0,1-.292.381,3.069,3.069,0,0,0-.645.6,3.145,3.145,0,0,1-.645.595l-.317.2-.949.1a8.571,8.571,0,0,1-1.5-.836,2.679,2.679,0,0,1-1.265-1.332,7.565,7.565,0,0,1-.158-1.762.918.918,0,0,1,.243-.43l.049-.2v-.482q0-.051.243-.9c.162-.567.3-.879.414-.939a2.618,2.618,0,0,0,.535-1,7.081,7.081,0,0,1,.559-1.192l2.24-3.423a.656.656,0,0,1,.1-.431h.146a.274.274,0,0,0,.267-.139,1.9,1.9,0,0,1,.219-.317.927.927,0,0,1,.427-.786,1.866,1.866,0,0,0,.608-.672,3.673,3.673,0,0,1,.427-.672l.048-.152a1.413,1.413,0,0,1,.426-.241.559.559,0,0,0,.378-.393l.828-.837a2.961,2.961,0,0,1,.389-.254,1.908,1.908,0,0,0,.56-.557l.171-.076h.146l.1-.051q.291-.66.6-.71a.757.757,0,0,0,.4-.152q-.024-.786.852-.786a.389.389,0,0,0,.292-.1l.584-.483a3.77,3.77,0,0,0,.463-.988v-.051l.439.127.048-.127-.1-.557a4.483,4.483,0,0,0,.292-.7c.146-.4.283-.63.413-.7s.2-.143.2-.228v-.3l-.049-.3.1-.2v-.329l.048-.1a2.77,2.77,0,0,0,.292-.939,1.279,1.279,0,0,1,.268-.2l1.094-3.22a5.231,5.231,0,0,0,.146-.659l.194-.279a4.3,4.3,0,0,0,.292-1.039c0-.068-.033-.1-.1-.1s-.211.1-.438.292a.984.984,0,0,1-.511.291l-.389-.1h-.1c-.1,0-.231.085-.4.253s-.272.254-.3.254l-.292.051c-.162.287-.308.447-.438.482l-.608.405h-.049l-.341-.253c0-.034-.041-.051-.122-.051-.065,0-.162.2-.292.609l-.756.379a2.493,2.493,0,0,0-.292-.05c-.163,0-.317.157-.463.469a.792.792,0,0,1-.585.52,1.619,1.619,0,0,1-.9.354l-1.438,1.04a.726.726,0,0,0-.342.254,1.431,1.431,0,0,0-.949.583l-.659-.05a.627.627,0,0,0-.475.329.625.625,0,0,1-.475.33h-.146l-.292-.051-.8.2a2.124,2.124,0,0,1-1.048-.546q-.706-.544-.706-.95l-.146-1.142a1.43,1.43,0,0,1,.194-.354,1.019,1.019,0,0,0,.2-.431.9.9,0,0,0-.049-.2v-.2a5.034,5.034,0,0,1,.608-2.13v-.1c0-.068-.048-.1-.146-.1-.211,0-.388.183-.533.546a1.83,1.83,0,0,1-.507.773,3.3,3.3,0,0,0-.421.38c-.088.1-.165.153-.229.153a1.031,1.031,0,0,0-.337-.153,1.539,1.539,0,0,1-.168-.3,1.016,1.016,0,0,0-.373-.418.628.628,0,0,1-.253-.571c0-.185.234-.431.7-.735l.291-.3a4.591,4.591,0,0,1,1.5-1.242l.145-.354q.339-.281.836-.774a3.88,3.88,0,0,1,.884-.7l1.312-1.193a2.229,2.229,0,0,1,1.605-.557q.777,0,.778,1.04a3.065,3.065,0,0,1-.353,1.609,3.094,3.094,0,0,0-.438,1.04,3.411,3.411,0,0,1-.644,1.242,5.041,5.041,0,0,0-.681,1.142,5.829,5.829,0,0,1-.5,1.014,2.355,2.355,0,0,0-.377,1.153c0,.17.1.254.293.254a1.961,1.961,0,0,0,1.046-.456l.219-.1a3.3,3.3,0,0,0,.487-.254l.608-.278a.9.9,0,0,1,.536-.508l.462-.253c.228-.1.507-.232.84-.393a1.581,1.581,0,0,0,.645-.469,1.14,1.14,0,0,1,.377-.367,2.712,2.712,0,0,0,.523-.444q.633,0,1.753-1.141,1.119-.686,2.093-1.357a12,12,0,0,0,1.29-.976,4.045,4.045,0,0,1,.523-.278,4.164,4.164,0,0,0,.852-.572,1.827,1.827,0,0,1,1.2-.392,1.867,1.867,0,0,1,1.216.494,1.348,1.348,0,0,1,.583.976l-.048,1.217a3.206,3.206,0,0,1-.608,1.978,4.967,4.967,0,0,1-.341,1.394l.049.583c0,.1-.179.271-.535.508m-11.52,19.422.122-.355a.684.684,0,0,1,.34-.355,2.543,2.543,0,0,1,.656-1.42,2.025,2.025,0,0,1,.049-.634l.34-.33.948-1.673a7.066,7.066,0,0,1,.316-.671,3.862,3.862,0,0,0,.268-.622,3.348,3.348,0,0,1,.8-1.394v-.178c0-.237-.049-.355-.146-.355a1.557,1.557,0,0,1-.487.355l-1.555,1.369a7.59,7.59,0,0,0-.656.812l-.462.507a2.868,2.868,0,0,1-.6.545,1.8,1.8,0,0,0-.51.735q-.3.621-.523.621h-.1a1.316,1.316,0,0,1-.244-.127.245.245,0,0,0-.145.229l.145.608a.623.623,0,0,1-.194.317,2.328,2.328,0,0,0-.328.469.586.586,0,0,1-.28.3q-.146.049-.534.937l-.462.254a3.741,3.741,0,0,1-.9,2.409,5.817,5.817,0,0,0-.316.8,1.454,1.454,0,0,1-.219.495q-.146.938-.511,1.09a.163.163,0,0,0-.1.153c0,.1.073.2.219.3l.1.1a5.441,5.441,0,0,0-.316,1.471c0,.067.032.1.1.1l.73-.38a2.094,2.094,0,0,0,1.046-.964l.389-.786a.5.5,0,0,1,.34-.2.977.977,0,0,1,.474-.684c.219-.1.328-.237.328-.406a7.117,7.117,0,0,1,.912-1.75,14.188,14.188,0,0,0,.96-1.7"/>
    <path id="パス_10570" data-name="パス 10570" d="M183.812,655.938l-1.144,1.039a.276.276,0,0,0-.195-.1c-.162,0-.361.153-.6.457s-.4.456-.5.456l-.243-.05a3.208,3.208,0,0,1-.877.557,3.434,3.434,0,0,0-.645.28,1.783,1.783,0,0,1-.681.228.781.781,0,0,0-.5.215,1.513,1.513,0,0,1-.949.19l-.39-.05a1.341,1.341,0,0,1-.413.152.618.618,0,0,1-.414-.216.782.782,0,0,0-.475-.24.836.836,0,0,1-.523-.356,1.828,1.828,0,0,0-.5-.456,1.034,1.034,0,0,1-.377-.355l-.341-.3a2.963,2.963,0,0,1-.8-1.116A3.21,3.21,0,0,1,172.86,655v-.1l.048-.482-.048-.557a1.709,1.709,0,0,0,.243-.432v-.811l.584-2.029c.032-.084-.033-.193-.195-.329a1.008,1.008,0,0,1-.488.456.493.493,0,0,0-.33.356c-.057.185-.151.278-.281.278l-.295-.1a2.8,2.8,0,0,0-.22.521.609.609,0,0,1-.588.469c-.294,0-.442-.118-.442-.356l.05-.456-.147-.634a2.05,2.05,0,0,1,.389-.8,1.508,1.508,0,0,1,.719-.685.964.964,0,0,0,.561-.481,3.662,3.662,0,0,1,1.01-.952,1.228,1.228,0,0,0,.756-.659,2.715,2.715,0,0,1,.889-.456,1.73,1.73,0,0,0,.828-.519,6.542,6.542,0,0,1,1.657-1.066,5.139,5.139,0,0,1,2.01-.723,1.815,1.815,0,0,0,.536-.114c.227-.076.439-.143.633-.2a2.719,2.719,0,0,0,.609-.279,1.089,1.089,0,0,1,.512-.191l.706.254a5.919,5.919,0,0,1,.951.329,2.171,2.171,0,0,0,.5.216,5.794,5.794,0,0,1,.926.444,1.1,1.1,0,0,1,.475,1.04,4.86,4.86,0,0,0-.414.684c0,.068.187.169.56.3q.195.379.585.988l.268.888.048,2.079-.048.2c-.179.169-.268.278-.268.329l.073.507-.195.71a.629.629,0,0,1-.243.432.461.461,0,0,0-.219.253l-.146.2a4.49,4.49,0,0,0-.207.443,1.886,1.886,0,0,1-.353.571.9.9,0,0,0-.243.482.573.573,0,0,1-.244.4.892.892,0,0,0-.28.267.7.7,0,0,1-.279.241m-7.558.659.1.583.048.051h.389l.121.051a3.957,3.957,0,0,0,.728.1,1.758,1.758,0,0,0,1.2-.393,1.273,1.273,0,0,1,.716-.393c.178,0,.327-.127.449-.381s.2-.38.23-.38h.34l.1-.051a.869.869,0,0,1,.5-.836,1.517,1.517,0,0,0,.7-.672,1.852,1.852,0,0,1,.473-.634,1.082,1.082,0,0,0,.365-.57l.193-.3a.553.553,0,0,0,.1-.38l.461-.913a4.74,4.74,0,0,0,.146-.989.93.93,0,0,0-.522-.836,1.262,1.262,0,0,1-.522-1.193,1.422,1.422,0,0,1,.57-1.077c.381-.33.571-.528.571-.6,0-.1-.049-.152-.146-.152a3.027,3.027,0,0,0-.558.2q-.17.355-1.723.938a3.959,3.959,0,0,0-.558-.253c-.1,0-.2.1-.292.3a1.351,1.351,0,0,1-.291.431h-.315q-.05,0-.316.329a.836.836,0,0,1-.679.33l-.291.3a1.077,1.077,0,0,1-.486.837l-.267.33c-.162.2-.372.44-.631.71l-.437,1.141a2.979,2.979,0,0,0-.266.989.876.876,0,0,1-.329.316.488.488,0,0,0-.255.418.711.711,0,0,0,.17.254.6.6,0,0,1,.171.3l-.1.329-.1.938Z"/>
    <path id="パス_10571" data-name="パス 10571" d="M191.065,648.306l.342.151a1.047,1.047,0,0,1,.464-.735h.195q.245,0,.636-.685l.415-.252a.654.654,0,0,0,.293.05c.1,0,.191-.067.281-.2a8.246,8.246,0,0,1,.672-.786h.1q.146,0,.354-.228a.706.706,0,0,1,.549-.228l.831-.229a4.042,4.042,0,0,1,.438-.1q.219-.077,1.07.926a3.043,3.043,0,0,1,.852,1.939.586.586,0,0,1-.535.634l-.122.1v.507l-.414.939a.859.859,0,0,1-.413.481c-.146.271-.252.457-.316.559l-.341.05-.146.152v.634a7.691,7.691,0,0,0-.632,1.331,5.043,5.043,0,0,0-.413,1.306c0,.322.064.482.194.482a.446.446,0,0,0,.292-.127,3.694,3.694,0,0,1,.4-.292,1.3,1.3,0,0,0,.377-.342,1.042,1.042,0,0,1,.51-.317,1.811,1.811,0,0,0,.73-.52,6.811,6.811,0,0,1,.485-.507,2.541,2.541,0,0,0,.317-.342c.113-.143.186-.215.218-.215a1.712,1.712,0,0,0,.462-.1,2.329,2.329,0,0,1,.1-.406l.584-.3,1.409-1.318.2-.254a3.011,3.011,0,0,0,.486-.152,1.671,1.671,0,0,1,.656-.989c0-.067.081-.118.243-.152a1.792,1.792,0,0,1,.5-.646,1.969,1.969,0,0,0,.5-.6l.559-.483a.618.618,0,0,0,.339-.3,13.265,13.265,0,0,1,1.568-1.331,2.164,2.164,0,0,1,.985-.165,1.336,1.336,0,0,1,1.105.545,3.115,3.115,0,0,0,.925.824,1.111,1.111,0,0,1,.5,1.064,7.987,7.987,0,0,1-1.1,2.815,16.106,16.106,0,0,0-.729,2.675c-.016.33-.09.52-.219.571s-.195.11-.195.178v.1q0,.609.195.609.146,0,.4-.253a3.259,3.259,0,0,1,1.032-.558l.218.051a3.806,3.806,0,0,1,.946-1.205,1.093,1.093,0,0,0,.484-.456.772.772,0,0,1,.594-.393.746.746,0,0,0,.449-.127q.022-.609.956-1.369a4.326,4.326,0,0,1,1.079-.761q.243,0,.388.38a1.356,1.356,0,0,0,.3.521c.1.092.157.172.157.24v.457a.415.415,0,0,1-.315.431,1.415,1.415,0,0,1-.437.659l-.437-.051q-.122.152-.207.279c-.056.084-.092.118-.108.1q-.2.051-.692.673t-.886,1.026l-.1.152a1.124,1.124,0,0,1-.364.2l-.437.38a1.065,1.065,0,0,0-.291-.152c-.033,0-.1.068-.206.2a2.876,2.876,0,0,1-.631.52,2.306,2.306,0,0,0-.716.722l-.388.407-.51.075q-.073,0-.243.228l-.436.583a1.152,1.152,0,0,1-1,.432q-.146,0-.376-.267a5.584,5.584,0,0,0-.437-.456,12.227,12.227,0,0,1-.923-1.141,10.1,10.1,0,0,1-.717-1l.146-.888-.049-.608a1.217,1.217,0,0,1,.231-.545,3.027,3.027,0,0,0,.232-.394l-.049-.988a.636.636,0,0,0,.1-.152l.341-.583a2.927,2.927,0,0,1-.049-.558l.1-.837a1.761,1.761,0,0,0-.766.824.977.977,0,0,1-.864.621q-.462.863-.705.836a.814.814,0,0,0-.146.2l-.34.2-.414-.05-.146.633a2.084,2.084,0,0,0-.693.545,2.049,2.049,0,0,1-.5.5l-.414.405h-.389a1.649,1.649,0,0,1-.754,1.14l-.195.254-.438-.05a1.54,1.54,0,0,1-.608.989q-.414,0-1.131.786t-1.01.785q-2.116,0-3.43-2.764a4.287,4.287,0,0,0-.23-.379,1.6,1.6,0,0,1-.183-.863,2.48,2.48,0,0,1,.255-1.344,7.279,7.279,0,0,0,.657-1.331q.4-.975.6-.849a.74.74,0,0,0,.049-.3,1.416,1.416,0,0,0,.389-.735c0-.068-.033-.1-.1-.1a1.022,1.022,0,0,0-.292.153l-.343.151a.485.485,0,0,0-.317.2.975.975,0,0,1-.342.292q-.246.14-.391.24H191.7c-.1-.1-.163-.151-.2-.151a1.7,1.7,0,0,1-.245.507l-.293.051q-.539.582-.684.583a1.41,1.41,0,0,1-.441-.178c-.228-.118-.341-.237-.341-.355l.17-.989V649.6c0-.034.065-.1.2-.2a2.28,2.28,0,0,0,.391-.545.967.967,0,0,1,.806-.545"/>
  </g>
</svg>
