<svg xmlns="http://www.w3.org/2000/svg" width="18" height="17.914" viewBox="0 0 18 17.914">
  <g id="box-seam" transform="translate(0 -0.086)">
    <path id="パス_1017" data-name="パス 1017" d="M9.209,1.252a.563.563,0,0,0-.418,0L2.077,3.938l2.7,1.081L11.7,2.25l-2.495-1Zm4.01,1.6L6.3,5.625,9,6.706l6.923-2.768-2.7-1.081Zm3.656,1.912L9.562,7.693V16.6l7.313-2.925V4.77ZM8.438,16.607V7.693L1.125,4.769v8.913ZM8.373.207a1.688,1.688,0,0,1,1.253,0l8.02,3.208A.563.563,0,0,1,18,3.938v9.745a1.125,1.125,0,0,1-.708,1.044L9.209,17.96a.563.563,0,0,1-.418,0L.709,14.726A1.125,1.125,0,0,1,0,13.682V3.938a.563.563,0,0,1,.353-.522Z" fill="#4aa9ac" fill-rule="evenodd"/>
  </g>
</svg>
