<svg xmlns="http://www.w3.org/2000/svg" width="13.715" height="16.001" viewBox="0 0 13.715 16.001">
  <path id="file-excel-o" d="M13.107,3.393a2.082,2.082,0,0,1,.429.679,2.06,2.06,0,0,1,.179.786V15.144a.854.854,0,0,1-.857.857h-12a.826.826,0,0,1-.607-.25A.826.826,0,0,1,0,15.144V.857A.826.826,0,0,1,.25.25.826.826,0,0,1,.857,0h8a2.06,2.06,0,0,1,.786.179,2.082,2.082,0,0,1,.679.429ZM9.143,1.214V4.571H12.5a.973.973,0,0,0-.2-.366l-2.8-2.8a.973.973,0,0,0-.366-.2Zm3.429,13.643V5.714H8.857A.854.854,0,0,1,8,4.857V1.143H1.143V14.857H12.572ZM3.831,12.768v.946H6.34v-.946H5.67l.92-1.438a1.257,1.257,0,0,0,.089-.147q.044-.084.067-.121t.031-.036H6.8a.3.3,0,0,0,.045.089.508.508,0,0,0,.04.067q.022.031.054.071t.058.076l.955,1.438H7.268v.946h2.6v-.946H9.259L7.545,10.329,9.286,7.811h.6V6.857H7.393v.955h.661l-.92,1.42q-.036.063-.089.147t-.08.121l-.018.027H6.929a.3.3,0,0,0-.045-.089,1.085,1.085,0,0,0-.152-.2l-.946-1.42h.679V6.857H3.875v.955h.607L6.17,10.241,4.438,12.768Z" fill="#4aa9ac"/>
</svg>
