<svg xmlns="http://www.w3.org/2000/svg" width="13" height="13" viewBox="0 0 13 13">
  <g id="グループ_2265" data-name="グループ 2265" transform="translate(-144.871 -740.707)">
    <path id="パス_765" data-name="パス 765" d="M151.879,753.707H146.36a1.555,1.555,0,0,1-1.489-1.609v-9.781a1.555,1.555,0,0,1,1.489-1.609h5.519a1.548,1.548,0,0,1,1.488,1.535c0,.014,0,.027,0,.041V743.9a.45.45,0,1,1-.9,0v-1.587a.619.619,0,0,0-.593-.641H146.36a.618.618,0,0,0-.592.641V752.1a.619.619,0,0,0,.592.64h5.519a.619.619,0,0,0,.593-.64v-1.7a.45.45,0,1,1,.9,0v1.7A1.555,1.555,0,0,1,151.879,753.707Z" fill="#949da0"/>
    <path id="パス_766" data-name="パス 766" d="M157.652,747.885h-7.946a.484.484,0,1,1,0-.969h7.946a.484.484,0,1,1,0,.969Z" transform="translate(-0.817 -0.193)" fill="#949da0"/>
    <g id="グループ_2264" data-name="グループ 2264" transform="translate(154.469 743.966)">
      <path id="パス_767" data-name="パス 767" d="M158.4,747.734a.485.485,0,0,1-.359-.16l-2.433-2.7a.484.484,0,1,1,.719-.649l2.433,2.7a.484.484,0,0,1-.359.809Z" transform="translate(-155.481 -744.07)" fill="#949da0"/>
      <path id="パス_768" data-name="パス 768" d="M155.965,750.642a.484.484,0,0,1-.359-.809l2.433-2.695a.484.484,0,0,1,.719.649l-2.433,2.695A.482.482,0,0,1,155.965,750.642Z" transform="translate(-155.481 -744.161)" fill="#949da0"/>
    </g>
  </g>
</svg>
