<svg xmlns="http://www.w3.org/2000/svg" width="32" height="17.501" viewBox="0 0 32 17.501">
  <g id="グループ_2021" data-name="グループ 2021" transform="translate(-64.954 -251.724)">
    <g id="グループ_2016" data-name="グループ 2016" transform="translate(64.954 252.57)">
      <g id="グループ_2006" data-name="グループ 2006" transform="translate(1.368 11.824)">
        <path id="パス_538" data-name="パス 538" d="M68.534,267.295a2.415,2.415,0,1,1,2.415-2.416A2.419,2.419,0,0,1,68.534,267.295Zm0-3.692a1.276,1.276,0,1,0,1.276,1.276A1.277,1.277,0,0,0,68.534,263.6Z" transform="translate(-66.118 -262.464)" fill="#6ec9cc"/>
      </g>
      <g id="グループ_2007" data-name="グループ 2007" transform="translate(8.075 11.824)">
        <path id="パス_539" data-name="パス 539" d="M74.218,267.295a2.415,2.415,0,1,1,2.415-2.416A2.418,2.418,0,0,1,74.218,267.295Zm0-3.692a1.276,1.276,0,1,0,1.276,1.276A1.277,1.277,0,0,0,74.218,263.6Z" transform="translate(-71.802 -262.464)" fill="#6ec9cc"/>
      </g>
      <g id="グループ_2008" data-name="グループ 2008" transform="translate(25.498 11.824)">
        <path id="パス_540" data-name="パス 540" d="M88.991,267.295a2.415,2.415,0,1,1,2.416-2.416A2.419,2.419,0,0,1,88.991,267.295Zm0-3.692a1.276,1.276,0,1,0,1.276,1.276A1.277,1.277,0,0,0,88.991,263.6Z" transform="translate(-86.575 -262.464)" fill="#6ec9cc"/>
      </g>
      <g id="グループ_2009" data-name="グループ 2009" transform="translate(20.248 3.478)">
        <path id="パス_541" data-name="パス 541" d="M92.356,266.691h-.308a.57.57,0,1,1,0-1.14h.308a.366.366,0,0,0,.366-.364v-3.777a.359.359,0,0,0-.336-.359l-3.286-.36a.57.57,0,0,1-.495-.448l-.624-2.949a.373.373,0,0,0-.332-.3l-4.4-.431v6.711a.57.57,0,1,1-1.14,0v-7.34a.571.571,0,0,1,.625-.568l5.026.494a1.511,1.511,0,0,1,1.336,1.2l.538,2.545,2.856.312a1.5,1.5,0,0,1,1.371,1.494v3.777A1.506,1.506,0,0,1,92.356,266.691Z" transform="translate(-82.109 -255.366)" fill="#6ec9cc"/>
      </g>
      <g id="グループ_2010" data-name="グループ 2010" transform="translate(0 10.384)">
        <path id="パス_542" data-name="パス 542" d="M66.46,265.662a1.508,1.508,0,0,1-1.506-1.506V261.81a.57.57,0,1,1,1.139,0v2.345a.367.367,0,0,0,.367.366.57.57,0,0,1,0,1.14Z" transform="translate(-64.954 -261.24)" fill="#6ec9cc"/>
      </g>
      <g id="グループ_2011" data-name="グループ 2011" transform="translate(13.658 13.902)">
        <path id="パス_543" data-name="パス 543" d="M77.1,265.375a.57.57,0,0,1,0-1.14l6.559,0h0a.57.57,0,0,1,0,1.14l-6.56,0Z" transform="translate(-76.533 -264.232)" fill="#6ec9cc"/>
      </g>
      <g id="グループ_2012" data-name="グループ 2012" transform="translate(6.95 13.666)">
        <path id="パス_544" data-name="パス 544" d="M72.106,265.171H71.42a.57.57,0,1,1,0-1.14h.685a.57.57,0,1,1,0,1.14Z" transform="translate(-70.85 -264.031)" fill="#6ec9cc"/>
      </g>
      <g id="グループ_2013" data-name="グループ 2013" transform="translate(21.22)">
        <path id="パス_545" data-name="パス 545" d="M84.568,264.36a.57.57,0,0,1-.57-.569v-9.866a.341.341,0,0,0-.34-.34h-.133a.57.57,0,1,1,0-1.14h.133a1.481,1.481,0,0,1,1.479,1.48v9.866A.569.569,0,0,1,84.568,264.36Z" transform="translate(-82.955 -252.444)" fill="#6ec9cc"/>
      </g>
      <g id="グループ_2014" data-name="グループ 2014" transform="translate(16.651 10.822)">
        <path id="パス_546" data-name="パス 546" d="M85.714,265.833H80.5A1.437,1.437,0,0,1,79.07,264.4v-1.351a1.436,1.436,0,0,1,1.434-1.434h5.209a1.437,1.437,0,0,1,1.436,1.434V264.4A1.438,1.438,0,0,1,85.714,265.833ZM80.5,262.751a.3.3,0,0,0-.3.3V264.4a.3.3,0,0,0,.3.3h5.209a.3.3,0,0,0,.3-.3v-1.351a.3.3,0,0,0-.3-.3Z" transform="translate(-79.07 -261.612)" fill="#6ec9cc"/>
      </g>
      <g id="グループ_2015" data-name="グループ 2015" transform="translate(24.403 7.643)">
        <path id="パス_547" data-name="パス 547" d="M88.54,260.067H86.212a.57.57,0,0,1,0-1.14H88.54a.57.57,0,0,1,0,1.14Z" transform="translate(-85.643 -258.927)" fill="#6ec9cc"/>
      </g>
    </g>
    <g id="グループ_2017" data-name="グループ 2017" transform="translate(67.409 252.044)">
      <path id="パス_548" data-name="パス 548" d="M67.611,261.88a.57.57,0,0,1-.569-.57v-8.744a.57.57,0,1,1,1.139,0v8.744A.57.57,0,0,1,67.611,261.88Z" transform="translate(-67.042 -251.996)" fill="#6ec9cc"/>
    </g>
    <g id="グループ_2018" data-name="グループ 2018" transform="translate(74.035 252.044)">
      <path id="パス_549" data-name="パス 549" d="M73.228,260.5a.57.57,0,0,1-.57-.569v-7.366a.57.57,0,1,1,1.14,0v7.366A.57.57,0,0,1,73.228,260.5Z" transform="translate(-72.658 -251.996)" fill="#6ec9cc"/>
    </g>
    <g id="グループ_2019" data-name="グループ 2019" transform="translate(80.654 252.044)">
      <path id="パス_550" data-name="パス 550" d="M78.844,261.88a.57.57,0,0,1-.57-.57v-8.744a.57.57,0,1,1,1.14,0v8.744A.57.57,0,0,1,78.844,261.88Z" transform="translate(-78.274 -251.996)" fill="#6ec9cc"/>
    </g>
    <g id="グループ_2020" data-name="グループ 2020" transform="translate(64.954 251.724)">
      <path id="パス_551" data-name="パス 551" d="M83.639,264.052H65.523a.57.57,0,0,1-.569-.57V252.294a.57.57,0,0,1,.569-.57H83.639a.571.571,0,0,1,.57.57v11.188A.57.57,0,0,1,83.639,264.052Zm-17.546-1.14H83.069V252.864H66.093Z" transform="translate(-64.954 -251.724)" fill="#6ec9cc"/>
    </g>
  </g>
</svg>
