<svg xmlns="http://www.w3.org/2000/svg" width="27.127" height="25.062" viewBox="0 0 27.127 25.062">
  <g id="グループ_2005" data-name="グループ 2005" transform="translate(-114.255 -218.512)">
    <path id="パス_534" data-name="パス 534" d="M128.712,243.574a.589.589,0,0,1-.535-.342l-.83-1.779a10.5,10.5,0,0,1-1.123,0l-.829,1.779a.591.591,0,0,1-.688.322l-2.378-.637a.59.59,0,0,1-.435-.622l.17-1.947a10.681,10.681,0,0,1-.976-.564l-1.6,1.121a.591.591,0,0,1-.756-.066l-1.741-1.74a.591.591,0,0,1-.065-.757l1.126-1.607a10.393,10.393,0,0,1-.561-.972l-1.956.172a.589.589,0,0,1-.623-.436l-.636-2.377a.591.591,0,0,1,.321-.689l1.779-.829a10.506,10.506,0,0,1,0-1.123l-1.779-.829a.589.589,0,0,1-.321-.688l.636-2.378a.6.6,0,0,1,.623-.436l1.946.17a10.576,10.576,0,0,1,.564-.976l-1.121-1.6a.591.591,0,0,1,.066-.756l1.741-1.741a.59.59,0,0,1,.756-.065l1.607,1.126a10.5,10.5,0,0,1,.973-.562l-.172-1.955a.591.591,0,0,1,.436-.623l2.377-.636a.588.588,0,0,1,.688.321l.829,1.779c.187-.01.376-.017.56-.015s.377,0,.563.015l.829-1.779a.588.588,0,0,1,.688-.321l2.377.636a.591.591,0,0,1,.436.622l-.17,1.947a10.708,10.708,0,0,1,.977.564l1.6-1.121a.591.591,0,0,1,.756.066l.982.983-.836.836-.631-.632-1.529,1.07a.589.589,0,0,1-.68,0,9.332,9.332,0,0,0-1.511-.871.591.591,0,0,1-.342-.589l.163-1.859-1.42-.38-.791,1.7a.6.6,0,0,1-.591.338c-.292-.028-.588-.038-.883-.041s-.568.015-.855.042a.6.6,0,0,1-.591-.339l-.79-1.7-1.419.38.164,1.868a.592.592,0,0,1-.343.59,9.133,9.133,0,0,0-1.505.868.591.591,0,0,1-.682,0l-1.535-1.076-1.039,1.039,1.07,1.529a.591.591,0,0,1,0,.681,9.329,9.329,0,0,0-.872,1.51.592.592,0,0,1-.589.343l-1.859-.163-.38,1.419,1.7.791a.591.591,0,0,1,.339.591,9.213,9.213,0,0,0,0,1.738.591.591,0,0,1-.339.591l-1.7.791.38,1.419,1.868-.164a.583.583,0,0,1,.59.343,9.169,9.169,0,0,0,.868,1.505.589.589,0,0,1,0,.681l-1.076,1.535,1.038,1.039,1.529-1.07a.591.591,0,0,1,.681,0,9.391,9.391,0,0,0,1.51.872.589.589,0,0,1,.343.588l-.163,1.859,1.42.381.79-1.7a.588.588,0,0,1,.591-.339,9.285,9.285,0,0,0,1.738,0,.592.592,0,0,1,.591.339l.791,1.7,1.419-.381-.164-1.868a.59.59,0,0,1,.343-.59,9.106,9.106,0,0,0,1.5-.868.591.591,0,0,1,.69,0l1.532,1.116,1.037-1.037-1.078-1.582a.592.592,0,0,1,.006-.675,9.311,9.311,0,0,0,.872-1.51.6.6,0,0,1,.589-.343l1.858.163.381-1.42-1.32-.615.5-1.07,1.77.823a.591.591,0,0,1,.321.689l-.637,2.377a.582.582,0,0,1-.622.436l-1.947-.17a10.564,10.564,0,0,1-.567.982l1.128,1.654a.59.59,0,0,1-.07.75l-1.74,1.741a.593.593,0,0,1-.766.059l-1.6-1.168a10.335,10.335,0,0,1-.966.557l.172,1.955a.59.59,0,0,1-.436.623l-2.376.637A.589.589,0,0,1,128.712,243.574Z" fill="#6ec9cc"/>
    <path id="パス_535" data-name="パス 535" d="M127.495,236.08a4.146,4.146,0,0,1,1.346-8.068h0a4.16,4.16,0,0,1,3.6,2.08l-1.024.59a2.976,2.976,0,0,0-2.571-1.489h0a2.966,2.966,0,0,0-.963,5.77Z" transform="translate(-1.362 -1.239)" fill="#6ec9cc"/>
    <path id="パス_536" data-name="パス 536" d="M128.453,239.467l.585-3.21a4.832,4.832,0,0,1,1.125-2.319l9.355-10.654c.477-.541,1.946.137,2.556.671h0a3.543,3.543,0,0,1,1.145,1.987l.016.244-.166.217-9.353,10.653a4.829,4.829,0,0,1-2.155,1.416Zm11.753-15.177-9.154,10.426a3.651,3.651,0,0,0-.851,1.752l-.232,1.272,1.232-.394a3.643,3.643,0,0,0,1.627-1.071l9.154-10.426a2.456,2.456,0,0,0-1.776-1.559Z" transform="translate(-1.852 -0.597)" fill="#6ec9cc"/>
    <rect id="長方形_1170" data-name="長方形 1170" width="1.182" height="3.544" transform="translate(136.161 225.296) rotate(-48.715)" fill="#6ec9cc"/>
  </g>
</svg>
