<svg xmlns="http://www.w3.org/2000/svg" width="27" height="29.532" viewBox="0 0 27 29.532">
  <g id="グループ_2066" data-name="グループ 2066" transform="translate(-64.964 -304.087)">
    <g id="グループ_2065" data-name="グループ 2065">
      <g id="グループ_2054" data-name="グループ 2054">
        <g id="グループ_2053" data-name="グループ 2053">
          <g id="グループ_2048" data-name="グループ 2048">
            <path id="パス_570" data-name="パス 570" d="M78.464,314.895a5.4,5.4,0,1,1,5.4-5.4A5.411,5.411,0,0,1,78.464,314.895Zm0-9.9a4.5,4.5,0,1,0,4.5,4.5A4.5,4.5,0,0,0,78.464,304.992Z" fill="#6ec9cc"/>
          </g>
          <g id="グループ_2049" data-name="グループ 2049">
            <path id="パス_571" data-name="パス 571" d="M77.995,311.665l-2.3-2.3.64-.64L78,310.386l2.767-2.762.639.641Z" fill="#6ec9cc"/>
          </g>
          <g id="グループ_2052" data-name="グループ 2052">
            <g id="グループ_2050" data-name="グループ 2050">
              <rect id="長方形_1171" data-name="長方形 1171" width="3.345" height="0.905" transform="translate(72.146 315.165) rotate(-45)" fill="#6ec9cc"/>
            </g>
            <g id="グループ_2051" data-name="グループ 2051">
              <rect id="長方形_1172" data-name="長方形 1172" width="0.905" height="3.464" transform="matrix(0.707, -0.707, 0.707, 0.707, 81.692, 313.355)" fill="#6ec9cc"/>
            </g>
          </g>
        </g>
      </g>
      <g id="グループ_2061" data-name="グループ 2061">
        <g id="グループ_2057" data-name="グループ 2057">
          <g id="グループ_2055" data-name="グループ 2055">
            <path id="パス_572" data-name="パス 572" d="M68.666,316.632a2.177,2.177,0,0,1-2.079-2.258,2.081,2.081,0,1,1,4.157,0A2.176,2.176,0,0,1,68.666,316.632Zm0-3.534a1.2,1.2,0,0,0-1.174,1.276,1.185,1.185,0,1,0,2.347,0A1.2,1.2,0,0,0,68.666,313.1Z" fill="#6ec9cc"/>
          </g>
          <g id="グループ_2056" data-name="グループ 2056">
            <path id="パス_573" data-name="パス 573" d="M71.034,328.19H66.3v-4.773a1.955,1.955,0,0,1-1.334-1.854v-4.31a1.645,1.645,0,0,1,1.132-1.566l1.307-.431.283.86-1.306.431a.741.741,0,0,0-.511.706v4.31a1.05,1.05,0,0,0,.932,1.043l.4.046v4.633h2.926v-4.633l.4-.046a1.048,1.048,0,0,0,.932-1.043v-4.31a.741.741,0,0,0-.51-.706l-1.307-.431.284-.86,1.306.431a1.645,1.645,0,0,1,1.132,1.566v4.31a1.958,1.958,0,0,1-1.333,1.854Z" fill="#6ec9cc"/>
          </g>
        </g>
        <g id="グループ_2060" data-name="グループ 2060">
          <g id="グループ_2058" data-name="グループ 2058">
            <path id="パス_574" data-name="パス 574" d="M88.262,316.632a2.177,2.177,0,0,1-2.079-2.258,2.081,2.081,0,1,1,4.158,0A2.177,2.177,0,0,1,88.262,316.632Zm0-3.534a1.2,1.2,0,0,0-1.174,1.276,1.186,1.186,0,1,0,2.348,0A1.2,1.2,0,0,0,88.262,313.1Z" fill="#6ec9cc"/>
          </g>
          <g id="グループ_2059" data-name="グループ 2059">
            <path id="パス_575" data-name="パス 575" d="M90.63,328.19H85.894v-4.773a1.955,1.955,0,0,1-1.334-1.854v-4.31a1.645,1.645,0,0,1,1.133-1.566L87,315.256l.284.86-1.307.431a.742.742,0,0,0-.511.706v4.31a1.05,1.05,0,0,0,.932,1.043l.4.046v4.633h2.926v-4.633l.4-.046a1.05,1.05,0,0,0,.932-1.043v-4.31a.742.742,0,0,0-.511-.706l-1.306-.431.283-.86,1.306.431a1.645,1.645,0,0,1,1.133,1.566v4.31a1.957,1.957,0,0,1-1.334,1.854Z" fill="#6ec9cc"/>
          </g>
        </g>
      </g>
      <g id="グループ_2064" data-name="グループ 2064">
        <g id="グループ_2062" data-name="グループ 2062">
          <path id="パス_576" data-name="パス 576" d="M78.464,320.566a2.393,2.393,0,0,1-2.283-2.485,2.286,2.286,0,1,1,4.566,0A2.393,2.393,0,0,1,78.464,320.566Zm0-3.978a1.407,1.407,0,0,0-1.378,1.493,1.391,1.391,0,1,0,2.756,0A1.408,1.408,0,0,0,78.464,316.588Z" fill="#6ec9cc"/>
        </g>
        <g id="グループ_2063" data-name="グループ 2063">
          <path id="パス_577" data-name="パス 577" d="M81.076,333.619H75.852v-5.365a2.146,2.146,0,0,1-1.5-2.048v-4.859a1.8,1.8,0,0,1,1.237-1.71l1.488-.491.283.86-1.487.49a.894.894,0,0,0-.615.851v4.859a1.24,1.24,0,0,0,1.1,1.233l.4.046v5.229h3.414v-5.229l.4-.046a1.239,1.239,0,0,0,1.1-1.233v-4.859a.894.894,0,0,0-.615-.851l-1.488-.49.284-.86,1.487.491a1.8,1.8,0,0,1,1.237,1.71v4.859a2.145,2.145,0,0,1-1.5,2.048Z" fill="#6ec9cc"/>
        </g>
      </g>
    </g>
  </g>
</svg>
