<svg xmlns="http://www.w3.org/2000/svg" width="28.785" height="26.168" viewBox="0 0 28.785 26.168">
  <g id="グループ_2177" data-name="グループ 2177" transform="translate(-94.475 -553.696)">
    <path id="パス_658" data-name="パス 658" d="M98.159,572.344a.551.551,0,0,1-.448-.23l-3.133-4.387a.55.55,0,0,1,.448-.87h.7v-.077A13.1,13.1,0,0,1,108.813,553.7a.549.549,0,1,1,0,1.1A12,12,0,0,0,96.829,566.78v.627a.55.55,0,0,1-.55.55H96.1l2.013,2.818,1.61-2.818h-.305a.55.55,0,0,1-.55-.55v-.627a9.951,9.951,0,0,1,18.369-5.306.549.549,0,1,1-.929.587,8.852,8.852,0,0,0-16.341,4.719v.077h.7a.55.55,0,0,1,.478.823l-2.507,4.387a.551.551,0,0,1-.45.276Z" fill="#6ec9cc"/>
    <path id="パス_659" data-name="パス 659" d="M108.923,579.864a.549.549,0,1,1,0-1.1,12,12,0,0,0,11.984-11.985v-.627a.549.549,0,0,1,.55-.549h.185l-2.014-2.819-1.61,2.819h.306a.55.55,0,0,1,.55.549v.627a9.952,9.952,0,0,1-18.37,5.307.55.55,0,0,1,.93-.587,8.852,8.852,0,0,0,16.34-4.72V566.7h-.7a.55.55,0,0,1-.478-.823l2.508-4.386a.55.55,0,0,1,.449-.277.563.563,0,0,1,.476.23l3.133,4.386a.55.55,0,0,1-.448.87h-.7v.077A13.1,13.1,0,0,1,108.923,579.864Z" fill="#6ec9cc"/>
    <path id="パス_660" data-name="パス 660" d="M108.187,570.464a.552.552,0,0,1-.389-.161l-2.507-2.508a.55.55,0,0,1,.778-.777l2.1,2.095,4.626-5.2a.55.55,0,1,1,.822.731l-5.014,5.64a.55.55,0,0,1-.395.185Z" fill="#6ec9cc"/>
  </g>
</svg>
