<svg xmlns="http://www.w3.org/2000/svg" width="27.851" height="29.997" viewBox="0 0 27.851 29.997">
  <g id="グループ_2178" data-name="グループ 2178" transform="translate(-100.414 -626.933)">
    <path id="パス_661" data-name="パス 661" d="M123.729,657.179H102.267a1.811,1.811,0,0,1-1.853-1.761V632.3a1.811,1.811,0,0,1,1.853-1.762h2.683a.512.512,0,0,1,0,1.024h-2.683a.789.789,0,0,0-.829.738v23.121a.788.788,0,0,0,.829.737h21.462a.788.788,0,0,0,.829-.737v-6.874a.512.512,0,1,1,1.024,0v6.874A1.811,1.811,0,0,1,123.729,657.179Z" transform="translate(0 -0.25)" fill="#6ec9cc"/>
    <path id="パス_662" data-name="パス 662" d="M126.568,642.961a.512.512,0,0,1-.512-.512v-10.06a.83.83,0,0,0-.829-.829h-2.682a.512.512,0,1,1,0-1.024h2.682a1.855,1.855,0,0,1,1.853,1.853v10.06A.512.512,0,0,1,126.568,642.961Z" transform="translate(-1.498 -0.25)" fill="#6ec9cc"/>
    <path id="パス_663" data-name="パス 663" d="M122.587,654.867H103.808a.512.512,0,0,1-.512-.512V633.733a.511.511,0,0,1,.512-.511h1.342a.511.511,0,0,1,0,1.023h-.83v19.6h17.756V651.23a.511.511,0,1,1,1.023,0v3.124A.512.512,0,0,1,122.587,654.867Z" transform="translate(-0.2 -0.436)" fill="#6ec9cc"/>
    <path id="パス_664" data-name="パス 664" d="M123.885,645.844a.512.512,0,0,1-.511-.512v-10.89h-.829a.512.512,0,1,1,0-1.024h1.34a.512.512,0,0,1,.512.512v11.4A.512.512,0,0,1,123.885,645.844Z" transform="translate(-1.498 -0.449)" fill="#6ec9cc"/>
    <path id="パス_665" data-name="パス 665" d="M120.1,634.663H106.691a.512.512,0,0,1-.512-.512v-2.012a2.527,2.527,0,0,1,2.524-2.524h1.54a3.2,3.2,0,0,1,6.307,0h1.541a2.527,2.527,0,0,1,2.524,2.524v2.012A.512.512,0,0,1,120.1,634.663Zm-12.9-1.024h12.39v-1.5a1.5,1.5,0,0,0-1.5-1.5H116.08a.511.511,0,0,1-.511-.512,2.171,2.171,0,0,0-4.343,0,.512.512,0,0,1-.512.512H108.7a1.5,1.5,0,0,0-1.5,1.5Z" transform="translate(-0.399)" fill="#6ec9cc"/>
    <path id="パス_666" data-name="パス 666" d="M113.9,631.46a.512.512,0,0,1-.512-.512v-1.341a.512.512,0,1,1,1.024,0v1.341A.512.512,0,0,1,113.9,631.46Z" transform="translate(-0.899 -0.15)" fill="#6ec9cc"/>
    <path id="パス_667" data-name="パス 667" d="M121.574,652.166a.512.512,0,0,1-.362-.15l-3.353-3.353a.512.512,0,0,1,.723-.724l2.962,2.962,7.018-8.214a.512.512,0,1,1,.778.665l-7.378,8.634a.514.514,0,0,1-.369.18Z" transform="translate(-1.198 -1.079)" fill="#6ec9cc"/>
    <path id="パス_668" data-name="パス 668" d="M108.89,640.087h-.748a.382.382,0,1,1,0-.764h.748a.382.382,0,1,1,0,.764Z" transform="translate(-0.509 -0.859)" fill="#6ec9cc"/>
    <path id="パス_669" data-name="パス 669" d="M119.063,640.207h-8.049a.511.511,0,1,1,0-1.023h8.049a.511.511,0,1,1,0,1.023Z" transform="translate(-0.699 -0.849)" fill="#6ec9cc"/>
    <path id="パス_670" data-name="パス 670" d="M108.89,642.969h-.748a.382.382,0,1,1,0-.764h.748a.382.382,0,1,1,0,.764Z" transform="translate(-0.509 -1.058)" fill="#6ec9cc"/>
    <path id="パス_671" data-name="パス 671" d="M119.063,643.09h-8.049a.512.512,0,0,1,0-1.024h8.049a.512.512,0,0,1,0,1.024Z" transform="translate(-0.699 -1.049)" fill="#6ec9cc"/>
    <path id="パス_672" data-name="パス 672" d="M108.89,645.852h-.748a.382.382,0,1,1,0-.764h.748a.382.382,0,1,1,0,.764Z" transform="translate(-0.509 -1.258)" fill="#6ec9cc"/>
    <path id="パス_673" data-name="パス 673" d="M119.063,645.972h-8.049a.511.511,0,1,1,0-1.023h8.049a.511.511,0,1,1,0,1.023Z" transform="translate(-0.699 -1.248)" fill="#6ec9cc"/>
  </g>
</svg>
