<svg xmlns="http://www.w3.org/2000/svg" width="27.597" height="24.154" viewBox="0 0 27.597 24.154">
  <g id="グループ_2181" data-name="グループ 2181" transform="translate(-101.404 -670.39)">
    <path id="パス_697" data-name="パス 697" d="M103.941,691.9a.55.55,0,0,1-.389-.938l5.962-5.962a.55.55,0,1,1,.778.777l-5.962,5.962A.549.549,0,0,1,103.941,691.9Z" fill="#6ec9cc"/>
    <path id="パス_698" data-name="パス 698" d="M126.464,691.9a.549.549,0,0,1-.389-.161l-5.962-5.962a.55.55,0,0,1,.778-.777l5.962,5.962a.55.55,0,0,1-.389.938Z" fill="#6ec9cc"/>
    <path id="パス_699" data-name="パス 699" d="M126.464,694.544H103.941a2.54,2.54,0,0,1-2.537-2.537V678.759a3,3,0,0,1,1.368-2.28l.148-.125c.585-.5,5.066-3.929,5.256-4.075a.55.55,0,0,1,.668.874c-.046.035-4.646,3.555-5.208,4.036l-.155.132c-.5.423-.978.823-.978,1.438v13.248a1.44,1.44,0,0,0,1.438,1.438h22.523a1.439,1.439,0,0,0,1.437-1.438V678.759c0-.615-.475-1.015-.977-1.438l-.155-.132c-.563-.482-4.944-3.88-4.988-3.914a.55.55,0,0,1,.674-.869c.181.14,4.446,3.448,5.029,3.948l.149.125a3,3,0,0,1,1.368,2.28v13.248A2.54,2.54,0,0,1,126.464,694.544Z" fill="#6ec9cc"/>
    <path id="パス_700" data-name="パス 700" d="M116.527,687.92h-2.65a5.131,5.131,0,0,1-3.669-1.457l-6.656-6.653a.55.55,0,1,1,.778-.778l6.624,6.625a4.019,4.019,0,0,0,2.923,1.164h2.65a4.05,4.05,0,0,0,2.955-1.194l6.593-6.6a.55.55,0,1,1,.778.778l-6.625,6.624A5.164,5.164,0,0,1,116.527,687.92Z" fill="#6ec9cc"/>
    <path id="パス_701" data-name="パス 701" d="M115.19,678.256h-.036a.55.55,0,0,1-.382-.192l-2.433-2.85a.55.55,0,0,1,.837-.714l2.067,2.421,4.962-4.448a.55.55,0,0,1,.734.819l-5.381,4.825A.549.549,0,0,1,115.19,678.256Z" fill="#6ec9cc"/>
    <path id="パス_702" data-name="パス 702" d="M114.993,682.524a6.067,6.067,0,1,1,3.882-10.73.55.55,0,0,1-.705.845,4.955,4.955,0,1,0,1.731,3.05.55.55,0,0,1,1.087-.168,6.071,6.071,0,0,1-6,7Z" fill="#6ec9cc"/>
  </g>
</svg>
