<svg id="グループ_2251" data-name="グループ 2251" xmlns="http://www.w3.org/2000/svg" width="27" height="26.206" viewBox="0 0 27 26.206">
  <g id="グループ_2223" data-name="グループ 2223">
    <g id="グループ_2222" data-name="グループ 2222">
      <path id="パス_733" data-name="パス 733" d="M91.608,384.6H65.734a.55.55,0,0,1-.563-.537v-2.022a.55.55,0,0,1,.563-.537H91.608a.55.55,0,0,1,.563.537v2.022A.55.55,0,0,1,91.608,384.6ZM66.3,383.523H91.047v-.948H66.3Z" transform="translate(-65.171 -381.501)" fill="#6ec9cc"/>
    </g>
  </g>
  <g id="グループ_2225" data-name="グループ 2225" transform="translate(0.891 2.306)">
    <g id="グループ_2224" data-name="グループ 2224">
      <path id="パス_734" data-name="パス 734" d="M88.781,402.073H68.649a2.486,2.486,0,0,1-2.543-2.417v-15.2a.565.565,0,0,1,1.129,0v15.2A1.382,1.382,0,0,0,68.649,401H88.781a1.382,1.382,0,0,0,1.414-1.344V385.944a.565.565,0,0,1,1.129,0v13.712A2.486,2.486,0,0,1,88.781,402.073Z" transform="translate(-66.106 -383.92)" fill="#6ec9cc"/>
    </g>
  </g>
  <g id="グループ_2227" data-name="グループ 2227" transform="translate(8.284 23.463)">
    <g id="グループ_2226" data-name="グループ 2226">
      <path id="パス_735" data-name="パス 735" d="M82.27,407.592H74.582a1.371,1.371,0,1,1,0-2.742H82.27a1.371,1.371,0,1,1,0,2.742Zm-7.688-1.669a.3.3,0,1,0,0,.6H82.27a.3.3,0,1,0,0-.6Z" transform="translate(-73.21 -404.85)" fill="#6ec9cc"/>
    </g>
  </g>
  <g id="グループ_2228" data-name="グループ 2228" transform="translate(12.964 20.733)">
    <path id="パス_736" data-name="パス 736" d="M78.656,405.789a.537.537,0,0,1-.537-.537v-2.73a.537.537,0,1,1,1.073,0v2.73A.537.537,0,0,1,78.656,405.789Z" transform="translate(-78.119 -401.986)" fill="#6ec9cc"/>
  </g>
  <g id="グループ_2238" data-name="グループ 2238" transform="translate(6.441 13.269)">
    <g id="グループ_2229" data-name="グループ 2229" transform="translate(3.589 2.841)">
      <path id="パス_737" data-name="パス 737" d="M76.714,398.97a.376.376,0,0,1-.047-.014l-1.372-.5a.439.439,0,1,1,.3-.825l1.371.5a.439.439,0,0,1-.256.839Z" transform="translate(-75.008 -397.599)" fill="#6ec9cc"/>
    </g>
    <g id="グループ_2230" data-name="グループ 2230" transform="translate(8.553 1.287)">
      <path id="パス_738" data-name="パス 738" d="M81.84,397.938a.452.452,0,0,1-.18-.092l-1.29-1.1a.439.439,0,0,1,.571-.668l1.291,1.1a.44.44,0,0,1-.392.761Z" transform="translate(-80.216 -395.969)" fill="#6ec9cc"/>
    </g>
    <g id="グループ_2231" data-name="グループ 2231" transform="translate(11.171 1.016)">
      <path id="パス_739" data-name="パス 739" d="M83.3,397.985a.435.435,0,0,1-.283-.22.44.44,0,0,1,.181-.595l2.693-1.434a.44.44,0,1,1,.414.776l-2.693,1.434A.437.437,0,0,1,83.3,397.985Z" transform="translate(-82.962 -395.685)" fill="#6ec9cc"/>
    </g>
    <g id="グループ_2232" data-name="グループ 2232" transform="translate(6.232 1.491)">
      <path id="パス_740" data-name="パス 740" d="M78.115,398.518a.44.44,0,0,1-.238-.7l1.171-1.47a.44.44,0,0,1,.688.548l-1.171,1.47A.441.441,0,0,1,78.115,398.518Z" transform="translate(-77.78 -396.183)" fill="#6ec9cc"/>
    </g>
    <g id="グループ_2233" data-name="グループ 2233" transform="translate(0 2.955)">
      <path id="パス_741" data-name="パス 741" d="M71.579,399.444a.439.439,0,0,1-.062-.833l2.092-.86a.439.439,0,1,1,.334.813l-2.092.86A.432.432,0,0,1,71.579,399.444Z" transform="translate(-71.243 -397.718)" fill="#6ec9cc"/>
    </g>
    <g id="グループ_2234" data-name="グループ 2234" transform="translate(2.047 1.785)">
      <path id="パス_742" data-name="パス 742" d="M74.318,398.9A1.22,1.22,0,1,1,75.794,398,1.221,1.221,0,0,1,74.318,398.9Zm.375-1.516a.341.341,0,1,0,.249.413A.341.341,0,0,0,74.692,397.38Z" transform="translate(-73.391 -396.492)" fill="#6ec9cc"/>
    </g>
    <g id="グループ_2235" data-name="グループ 2235" transform="translate(4.95 2.834)">
      <path id="パス_743" data-name="パス 743" d="M77.363,400a1.219,1.219,0,1,1,1.477-.891A1.221,1.221,0,0,1,77.363,400Zm.374-1.515a.341.341,0,1,0,.25.413A.341.341,0,0,0,77.737,398.48Z" transform="translate(-76.436 -397.591)" fill="#6ec9cc"/>
    </g>
    <g id="グループ_2236" data-name="グループ 2236" transform="translate(7.186)">
      <path id="パス_744" data-name="パス 744" d="M79.709,397.023a1.22,1.22,0,1,1,1.477-.892A1.222,1.222,0,0,1,79.709,397.023Zm.374-1.516a.341.341,0,1,0,.25.413A.341.341,0,0,0,80.083,395.507Z" transform="translate(-78.782 -394.619)" fill="#6ec9cc"/>
    </g>
    <g id="グループ_2237" data-name="グループ 2237" transform="translate(9.649 2.119)">
      <path id="パス_745" data-name="パス 745" d="M82.293,399.246a1.22,1.22,0,1,1,1.477-.892A1.221,1.221,0,0,1,82.293,399.246Zm.374-1.516a.341.341,0,1,0,.25.413A.341.341,0,0,0,82.667,397.73Z" transform="translate(-81.366 -396.842)" fill="#6ec9cc"/>
    </g>
  </g>
  <g id="グループ_2246" data-name="グループ 2246" transform="translate(14.899 4.67)">
    <g id="stats">
      <g id="グループ_2245" data-name="グループ 2245">
        <g id="グループ_2241" data-name="グループ 2241" transform="translate(0 0.336)">
          <g id="グループ_2240" data-name="グループ 2240">
            <g id="グループ_2239" data-name="グループ 2239">
              <path id="パス_746" data-name="パス 746" d="M83.449,393.749a3.656,3.656,0,1,1,1.031-7.163.4.4,0,0,1-.228.771,2.852,2.852,0,1,0,1.785,3.922.4.4,0,0,1,.731.333,3.653,3.653,0,0,1-3.32,2.137Z" transform="translate(-79.787 -386.435)" fill="#6ec9cc"/>
            </g>
          </g>
        </g>
        <g id="グループ_2244" data-name="グループ 2244" transform="translate(3.735)">
          <g id="グループ_2243" data-name="グループ 2243">
            <g id="グループ_2242" data-name="グループ 2242">
              <path id="パス_747" data-name="パス 747" d="M87.362,390.656a.414.414,0,0,1-.068-.006l-3.253-.547a.405.405,0,0,1-.267-.172.4.4,0,0,1-.059-.312l.712-3.222a.4.4,0,0,1,.474-.307,3.658,3.658,0,0,1,2.856,4.235A.4.4,0,0,1,87.362,390.656Zm-2.771-1.275,2.419.407a2.856,2.856,0,0,0-1.89-2.8Z" transform="translate(-83.705 -386.082)" fill="#6ec9cc"/>
            </g>
          </g>
        </g>
      </g>
    </g>
  </g>
  <g id="グループ_2250" data-name="グループ 2250" transform="translate(4.946 5.386)">
    <g id="グループ_2247" data-name="グループ 2247">
      <path id="パス_748" data-name="パス 748" d="M77.245,387.809H70.514a.49.49,0,0,1,0-.979h6.731a.49.49,0,0,1,0,.979Z" transform="translate(-70.025 -386.83)" fill="#6ec9cc"/>
    </g>
    <g id="グループ_2248" data-name="グループ 2248" transform="translate(0.978 1.994)">
      <path id="パス_749" data-name="パス 749" d="M72.476,389.9H71.54a.489.489,0,1,1,0-.978h.936a.489.489,0,1,1,0,.978Z" transform="translate(-71.051 -388.922)" fill="#6ec9cc"/>
    </g>
    <g id="グループ_2249" data-name="グループ 2249" transform="translate(0 3.987)">
      <path id="パス_750" data-name="パス 750" d="M74.385,391.992H70.514a.489.489,0,0,1,0-.979h3.871a.489.489,0,0,1,0,.979Z" transform="translate(-70.025 -391.013)" fill="#6ec9cc"/>
    </g>
  </g>
</svg>
