<svg xmlns="http://www.w3.org/2000/svg" width="25.941" height="24.936" viewBox="0 0 25.941 24.936">
  <g id="グループ_2047" data-name="グループ 2047" transform="translate(-64.951 -272.668)">
    <g id="グループ_2046" data-name="グループ 2046" transform="translate(64.951 272.668)">
      <g id="グループ_2022" data-name="グループ 2022" transform="translate(16.012 2.335)">
        <path id="パス_552" data-name="パス 552" d="M84.7,276.16H82.147a.531.531,0,0,1,0-1.062H84.7a.531.531,0,1,1,0,1.062Z" transform="translate(-81.617 -275.098)" fill="#6ec9cc"/>
      </g>
      <g id="グループ_2023" data-name="グループ 2023" transform="translate(6.321 2.335)">
        <path id="パス_553" data-name="パス 553" d="M74.609,276.16H72.06a.531.531,0,0,1,0-1.062h2.549a.531.531,0,0,1,0,1.062Z" transform="translate(-71.53 -275.098)" fill="#6ec9cc"/>
      </g>
      <g id="グループ_2024" data-name="グループ 2024" transform="translate(11.166 2.335)">
        <path id="パス_554" data-name="パス 554" d="M79.652,276.16H77.1a.531.531,0,0,1,0-1.062h2.549a.531.531,0,0,1,0,1.062Z" transform="translate(-76.573 -275.098)" fill="#6ec9cc"/>
      </g>
      <g id="グループ_2025" data-name="グループ 2025" transform="translate(0 2.335)">
        <path id="パス_555" data-name="パス 555" d="M88.459,297.7H67.383a2.435,2.435,0,0,1-2.432-2.433V277.531a2.435,2.435,0,0,1,2.432-2.433h2.123a.53.53,0,1,1,0,1.061H67.383a1.373,1.373,0,0,0-1.371,1.372v17.736a1.373,1.373,0,0,0,1.371,1.372H88.459a1.373,1.373,0,0,0,1.371-1.372V277.531a1.373,1.373,0,0,0-1.371-1.372H86.341a.53.53,0,1,1,0-1.061h2.118a2.436,2.436,0,0,1,2.433,2.433v17.736A2.436,2.436,0,0,1,88.459,297.7Z" transform="translate(-64.951 -275.098)" fill="#6ec9cc"/>
      </g>
      <g id="グループ_2034" data-name="グループ 2034" transform="translate(4.023)">
        <g id="グループ_2027" data-name="グループ 2027">
          <g id="グループ_2026" data-name="グループ 2026">
            <path id="パス_556" data-name="パス 556" d="M70.817,278.469a1.682,1.682,0,0,1-1.679-1.679v-2.442a1.679,1.679,0,0,1,3.359,0v2.442A1.681,1.681,0,0,1,70.817,278.469Zm0-4.74a.619.619,0,0,0-.618.619v2.442a.618.618,0,0,0,1.237,0v-2.442A.62.62,0,0,0,70.817,273.729Z" transform="translate(-69.138 -272.668)" fill="#6ec9cc"/>
          </g>
        </g>
        <g id="グループ_2029" data-name="グループ 2029" transform="translate(4.846)">
          <g id="グループ_2028" data-name="グループ 2028">
            <path id="パス_557" data-name="パス 557" d="M75.861,278.469a1.681,1.681,0,0,1-1.679-1.679v-2.442a1.679,1.679,0,0,1,3.359,0v2.442A1.681,1.681,0,0,1,75.861,278.469Zm0-4.74a.619.619,0,0,0-.618.619v2.442a.618.618,0,0,0,1.236,0v-2.442A.619.619,0,0,0,75.861,273.729Z" transform="translate(-74.182 -272.668)" fill="#6ec9cc"/>
          </g>
        </g>
        <g id="グループ_2031" data-name="グループ 2031" transform="translate(9.692)">
          <g id="グループ_2030" data-name="グループ 2030">
            <path id="パス_558" data-name="パス 558" d="M80.905,278.469a1.681,1.681,0,0,1-1.679-1.679v-2.442a1.679,1.679,0,0,1,3.359,0v2.442A1.682,1.682,0,0,1,80.905,278.469Zm0-4.74a.62.62,0,0,0-.619.619v2.442a.618.618,0,0,0,1.237,0v-2.442A.619.619,0,0,0,80.905,273.729Z" transform="translate(-79.226 -272.668)" fill="#6ec9cc"/>
          </g>
        </g>
        <g id="グループ_2033" data-name="グループ 2033" transform="translate(14.537)">
          <g id="グループ_2032" data-name="グループ 2032">
            <path id="パス_559" data-name="パス 559" d="M85.948,278.469a1.681,1.681,0,0,1-1.679-1.679v-2.442a1.679,1.679,0,0,1,3.359,0v2.442A1.681,1.681,0,0,1,85.948,278.469Zm0-4.74a.619.619,0,0,0-.618.619v2.442a.618.618,0,0,0,1.237,0v-2.442A.62.62,0,0,0,85.948,273.729Z" transform="translate(-84.269 -272.668)" fill="#6ec9cc"/>
          </g>
        </g>
      </g>
      <g id="グループ_2045" data-name="グループ 2045" transform="translate(2.609 7.497)">
        <g id="グループ_2035" data-name="グループ 2035" transform="translate(5.334)">
          <path id="パス_560" data-name="パス 560" d="M76.723,284.891H74.436a1.218,1.218,0,0,1-1.217-1.217v-1.986a1.218,1.218,0,0,1,1.217-1.217h2.287a1.218,1.218,0,0,1,1.217,1.217v1.986A1.218,1.218,0,0,1,76.723,284.891Zm-2.287-3.36a.157.157,0,0,0-.157.157v1.986a.157.157,0,0,0,.157.157h2.287a.157.157,0,0,0,.157-.157v-1.986a.157.157,0,0,0-.157-.157Z" transform="translate(-73.219 -280.471)" fill="#6ec9cc"/>
        </g>
        <g id="グループ_2036" data-name="グループ 2036" transform="translate(10.668)">
          <path id="パス_561" data-name="パス 561" d="M82.275,284.891H79.988a1.218,1.218,0,0,1-1.217-1.217v-1.986a1.218,1.218,0,0,1,1.217-1.217h2.287a1.218,1.218,0,0,1,1.217,1.217v1.986A1.218,1.218,0,0,1,82.275,284.891Zm-2.287-3.36a.157.157,0,0,0-.157.157v1.986a.157.157,0,0,0,.157.157h2.287a.157.157,0,0,0,.157-.157v-1.986a.157.157,0,0,0-.157-.157Z" transform="translate(-78.771 -280.471)" fill="#6ec9cc"/>
        </g>
        <g id="グループ_2037" data-name="グループ 2037" transform="translate(16.002)">
          <path id="パス_562" data-name="パス 562" d="M87.826,284.891H85.539a1.219,1.219,0,0,1-1.217-1.217v-1.986a1.219,1.219,0,0,1,1.217-1.217h2.287a1.219,1.219,0,0,1,1.218,1.217v1.986A1.219,1.219,0,0,1,87.826,284.891Zm-2.287-3.36a.156.156,0,0,0-.156.157v1.986a.156.156,0,0,0,.156.157h2.287a.157.157,0,0,0,.157-.157v-1.986a.157.157,0,0,0-.157-.157Z" transform="translate(-84.322 -280.471)" fill="#6ec9cc"/>
        </g>
        <g id="グループ_2038" data-name="グループ 2038" transform="translate(0 5.123)">
          <path id="パス_563" data-name="パス 563" d="M71.171,290.224H68.884a1.218,1.218,0,0,1-1.217-1.217V287.02a1.218,1.218,0,0,1,1.217-1.217h2.287a1.218,1.218,0,0,1,1.217,1.217v1.987A1.218,1.218,0,0,1,71.171,290.224Zm-2.287-3.361a.156.156,0,0,0-.156.157v1.987a.156.156,0,0,0,.156.157h2.287a.157.157,0,0,0,.157-.157V287.02a.157.157,0,0,0-.157-.157Z" transform="translate(-67.667 -285.803)" fill="#6ec9cc"/>
        </g>
        <g id="グループ_2039" data-name="グループ 2039" transform="translate(5.334 5.123)">
          <path id="パス_564" data-name="パス 564" d="M76.723,290.224H74.436a1.218,1.218,0,0,1-1.217-1.217V287.02a1.218,1.218,0,0,1,1.217-1.217h2.287a1.218,1.218,0,0,1,1.217,1.217v1.987A1.218,1.218,0,0,1,76.723,290.224Zm-2.287-3.361a.157.157,0,0,0-.157.157v1.987a.157.157,0,0,0,.157.157h2.287a.157.157,0,0,0,.157-.157V287.02a.157.157,0,0,0-.157-.157Z" transform="translate(-73.219 -285.803)" fill="#6ec9cc"/>
        </g>
        <g id="グループ_2040" data-name="グループ 2040" transform="translate(10.668 5.123)">
          <path id="パス_565" data-name="パス 565" d="M82.275,290.224H79.988a1.218,1.218,0,0,1-1.217-1.217V287.02a1.218,1.218,0,0,1,1.217-1.217h2.287a1.219,1.219,0,0,1,1.217,1.217v1.987A1.219,1.219,0,0,1,82.275,290.224Zm-2.287-3.361a.157.157,0,0,0-.157.157v1.987a.157.157,0,0,0,.157.157h2.287a.156.156,0,0,0,.156-.157V287.02a.156.156,0,0,0-.156-.157Z" transform="translate(-78.771 -285.803)" fill="#6ec9cc"/>
        </g>
        <g id="グループ_2041" data-name="グループ 2041" transform="translate(16.002 5.123)">
          <path id="パス_566" data-name="パス 566" d="M87.826,290.224H85.539a1.219,1.219,0,0,1-1.217-1.217V287.02a1.219,1.219,0,0,1,1.217-1.217h2.287a1.219,1.219,0,0,1,1.218,1.217v1.987A1.219,1.219,0,0,1,87.826,290.224Zm-2.287-3.361a.156.156,0,0,0-.156.157v1.987a.156.156,0,0,0,.156.157h2.287a.157.157,0,0,0,.157-.157V287.02a.157.157,0,0,0-.157-.157Z" transform="translate(-84.322 -285.803)" fill="#6ec9cc"/>
        </g>
        <g id="グループ_2042" data-name="グループ 2042" transform="translate(0 10.247)">
          <path id="パス_567" data-name="パス 567" d="M71.171,295.556H68.884a1.218,1.218,0,0,1-1.217-1.217v-1.986a1.218,1.218,0,0,1,1.217-1.217h2.287a1.218,1.218,0,0,1,1.217,1.217v1.986A1.218,1.218,0,0,1,71.171,295.556Zm-2.287-3.36a.156.156,0,0,0-.156.157v1.986a.156.156,0,0,0,.156.157h2.287a.157.157,0,0,0,.157-.157v-1.986a.157.157,0,0,0-.157-.157Z" transform="translate(-67.667 -291.136)" fill="#6ec9cc"/>
        </g>
        <g id="グループ_2043" data-name="グループ 2043" transform="translate(5.334 10.247)">
          <path id="パス_568" data-name="パス 568" d="M76.723,295.556H74.436a1.218,1.218,0,0,1-1.217-1.217v-1.986a1.218,1.218,0,0,1,1.217-1.217h2.287a1.218,1.218,0,0,1,1.217,1.217v1.986A1.218,1.218,0,0,1,76.723,295.556Zm-2.287-3.36a.157.157,0,0,0-.157.157v1.986a.157.157,0,0,0,.157.157h2.287a.157.157,0,0,0,.157-.157v-1.986a.157.157,0,0,0-.157-.157Z" transform="translate(-73.219 -291.136)" fill="#6ec9cc"/>
        </g>
        <g id="グループ_2044" data-name="グループ 2044" transform="translate(10.668 10.247)">
          <path id="パス_569" data-name="パス 569" d="M82.275,295.556H79.988a1.218,1.218,0,0,1-1.217-1.217v-1.986a1.218,1.218,0,0,1,1.217-1.217h2.287a1.219,1.219,0,0,1,1.217,1.217v1.986A1.219,1.219,0,0,1,82.275,295.556Zm-2.287-3.36a.157.157,0,0,0-.157.157v1.986a.157.157,0,0,0,.157.157h2.287a.156.156,0,0,0,.156-.157v-1.986a.156.156,0,0,0-.156-.157Z" transform="translate(-78.771 -291.136)" fill="#6ec9cc"/>
        </g>
      </g>
    </g>
  </g>
</svg>
