<svg xmlns="http://www.w3.org/2000/svg" width="21.168" height="26.927" viewBox="0 0 21.168 26.927">
  <g id="グループ_2171" data-name="グループ 2171" transform="translate(-64.778 -467.75)">
    <g id="グループ_2170" data-name="グループ 2170" transform="translate(64.778 467.75)">
      <g id="グループ_2169" data-name="グループ 2169">
        <g id="グループ_2157" data-name="グループ 2157" transform="translate(0 1.092)">
          <path id="パス_630" data-name="パス 630" d="M83.851,473.331H66.87a2.092,2.092,0,1,1,0-4.183H83.851a2.092,2.092,0,0,1,0,4.183ZM66.87,470.38a.86.86,0,1,0,0,1.72H83.851a.86.86,0,1,0,0-1.72Z" transform="translate(-64.778 -469.148)" fill="#6ec9cc"/>
        </g>
        <g id="グループ_2158" data-name="グループ 2158" transform="translate(6.111 6.819)">
          <path id="パス_631" data-name="パス 631" d="M80.927,477.71H73.216a.616.616,0,0,1,0-1.232h7.712a.616.616,0,0,1,0,1.232Z" transform="translate(-72.6 -476.478)" fill="#6ec9cc"/>
        </g>
        <g id="グループ_2159" data-name="グループ 2159" transform="translate(4.125 9.665)">
          <path id="パス_632" data-name="パス 632" d="M82.357,481.352H70.673a.616.616,0,0,1,0-1.232H82.357a.616.616,0,1,1,0,1.232Z" transform="translate(-70.057 -480.12)" fill="#6ec9cc"/>
        </g>
        <g id="グループ_2160" data-name="グループ 2160" transform="translate(4.125 12.511)">
          <path id="パス_633" data-name="パス 633" d="M82.357,485H70.673a.616.616,0,0,1,0-1.232H82.357a.616.616,0,1,1,0,1.232Z" transform="translate(-70.057 -483.763)" fill="#6ec9cc"/>
        </g>
        <g id="グループ_2161" data-name="グループ 2161" transform="translate(4.125 15.357)">
          <path id="パス_634" data-name="パス 634" d="M82.357,488.636H70.673a.616.616,0,1,1,0-1.231H82.357a.616.616,0,1,1,0,1.231Z" transform="translate(-70.057 -487.405)" fill="#6ec9cc"/>
        </g>
        <g id="グループ_2164" data-name="グループ 2164" transform="translate(4.125 20.182)">
          <path id="パス_637" data-name="パス 637" d="M74.678,499.932H70.673a.616.616,0,1,1,0-1.231h4.006a.616.616,0,0,1,0,1.231Z" transform="translate(-70.057 -498.701)" fill="#6ec9cc"/>
        </g>
        <g id="グループ_2165" data-name="グループ 2165" transform="translate(0.002 2.57)">
          <path id="パス_638" data-name="パス 638" d="M82.875,495.4H67.854a3,3,0,0,1-3.073-2.911V471.621a.617.617,0,0,1,1.232,0v20.864a1.8,1.8,0,0,0,1.841,1.746H82.875a1.8,1.8,0,0,0,1.84-1.746v-17.63a.617.617,0,0,1,1.232,0v17.63A3,3,0,0,1,82.875,495.4Z" transform="translate(-64.781 -471.039)" fill="#6ec9cc"/>
        </g>
        <g id="グループ_2166" data-name="グループ 2166" transform="translate(11.668 19.4)">
          <path id="パス_639" data-name="パス 639" d="M81.923,499.753a.616.616,0,0,1-.607-.719l.306-1.811a.617.617,0,0,1-.441-1.061l.887-.851a.616.616,0,0,1,1.034.548l-.2,1.159.754-.892a.615.615,0,0,1,1.084.438l-.042.63,1.711-1.578a.616.616,0,0,1,.836.906L84.4,499.148a.616.616,0,0,1-1.032-.495l.02-.3-1,1.18A.616.616,0,0,1,81.923,499.753Z" transform="translate(-80.992 -495.14)" fill="#6ec9cc"/>
        </g>
        <g id="グループ_2167" data-name="グループ 2167" transform="translate(5.594)">
          <path id="パス_640" data-name="パス 640" d="M72.554,471.342a.615.615,0,0,1-.616-.616v-2.36a.616.616,0,1,1,1.231,0v2.36A.615.615,0,0,1,72.554,471.342Z" transform="translate(-71.938 -467.75)" fill="#6ec9cc"/>
        </g>
        <g id="グループ_2168" data-name="グループ 2168" transform="translate(14.339)">
          <path id="パス_641" data-name="パス 641" d="M83.747,471.342a.616.616,0,0,1-.616-.616v-2.36a.616.616,0,1,1,1.232,0v2.36A.615.615,0,0,1,83.747,471.342Z" transform="translate(-83.131 -467.75)" fill="#6ec9cc"/>
        </g>
      </g>
    </g>
  </g>
</svg>
