<svg xmlns="http://www.w3.org/2000/svg" width="25.012" height="29.155" viewBox="0 0 25.012 29.155">
  <g id="グループ_2267" data-name="グループ 2267" transform="translate(-64.964 -853.754)">
    <g id="グループ_2214" data-name="グループ 2214" transform="translate(64.964 853.754)">
      <g id="グループ_2213" data-name="グループ 2213">
        <g id="グループ_2195" data-name="グループ 2195">
          <path id="パス_721" data-name="パス 721" d="M73.162,881.9H67.75a2.789,2.789,0,0,1-2.786-2.786V856.54a2.789,2.789,0,0,1,2.786-2.786H86.522a2.79,2.79,0,0,1,2.786,2.786v13.619a.6.6,0,1,1-1.192,0V856.54a1.6,1.6,0,0,0-1.594-1.594H67.75a1.6,1.6,0,0,0-1.6,1.594v22.577a1.6,1.6,0,0,0,1.6,1.594h5.413a.6.6,0,0,1,0,1.192Z" transform="translate(-64.964 -853.754)" fill="#6ec9cc"/>
        </g>
        <g id="グループ_2200" data-name="グループ 2200" transform="translate(3.202 4.69)">
          <g id="グループ_2198" data-name="グループ 2198">
            <g id="グループ_2197" data-name="グループ 2197">
              <g id="グループ_2196" data-name="グループ 2196">
                <path id="パス_722" data-name="パス 722" d="M70.093,861.554a.592.592,0,0,1-.42-.175l-1.092-1.091a.6.6,0,0,1,.842-.843l.672.672,1.147-1.146a.6.6,0,0,1,.842.843l-1.568,1.566A.6.6,0,0,1,70.093,861.554Z" transform="translate(-68.407 -858.797)" fill="#6ec9cc"/>
              </g>
            </g>
          </g>
          <g id="グループ_2199" data-name="グループ 2199" transform="translate(5.279 0.491)">
            <path id="パス_723" data-name="パス 723" d="M85.4,860.515H74.678a.6.6,0,1,1,0-1.191H85.4a.6.6,0,0,1,0,1.191Z" transform="translate(-74.082 -859.324)" fill="#6ec9cc"/>
          </g>
        </g>
        <g id="グループ_2206" data-name="グループ 2206" transform="translate(3.202 10.306)">
          <g id="グループ_2204" data-name="グループ 2204">
            <g id="グループ_2203" data-name="グループ 2203">
              <g id="グループ_2202" data-name="グループ 2202">
                <g id="グループ_2201" data-name="グループ 2201">
                  <path id="パス_724" data-name="パス 724" d="M70.093,867.591a.592.592,0,0,1-.42-.175l-1.092-1.091a.6.6,0,0,1,.842-.842l.672.671,1.147-1.146a.6.6,0,0,1,.842.843l-1.568,1.566A.6.6,0,0,1,70.093,867.591Z" transform="translate(-68.407 -864.834)" fill="#6ec9cc"/>
                </g>
              </g>
            </g>
          </g>
          <g id="グループ_2205" data-name="グループ 2205" transform="translate(5.279 0.499)">
            <path id="パス_725" data-name="パス 725" d="M85.4,866.562H74.678a.6.6,0,1,1,0-1.192H85.4a.6.6,0,0,1,0,1.192Z" transform="translate(-74.082 -865.37)" fill="#6ec9cc"/>
          </g>
        </g>
        <g id="グループ_2212" data-name="グループ 2212" transform="translate(3.202 15.922)">
          <g id="グループ_2210" data-name="グループ 2210">
            <g id="グループ_2209" data-name="グループ 2209">
              <g id="グループ_2208" data-name="グループ 2208">
                <g id="グループ_2207" data-name="グループ 2207">
                  <path id="パス_726" data-name="パス 726" d="M70.093,873.629a.593.593,0,0,1-.42-.175l-1.092-1.091a.6.6,0,0,1,.842-.843l.672.671,1.147-1.145a.6.6,0,0,1,.842.843l-1.568,1.565A.6.6,0,0,1,70.093,873.629Z" transform="translate(-68.407 -870.872)" fill="#6ec9cc"/>
                </g>
              </g>
            </g>
          </g>
          <g id="グループ_2211" data-name="グループ 2211" transform="translate(5.279 0.507)">
            <path id="パス_727" data-name="パス 727" d="M77.3,872.608H74.678a.6.6,0,1,1,0-1.191H77.3a.6.6,0,0,1,0,1.191Z" transform="translate(-74.082 -871.417)" fill="#6ec9cc"/>
          </g>
        </g>
      </g>
    </g>
    <g id="グループ_2220" data-name="グループ 2220" transform="translate(75.192 867.303)">
      <g id="グループ_2215" data-name="グループ 2215" transform="translate(4.187)">
        <path id="パス_728" data-name="パス 728" d="M81.056,877.367a.6.6,0,0,1-.6-.6v-6.078a.6.6,0,0,1,.267-.5l2.686-1.778a.6.6,0,0,1,.658,0l2.687,1.778a.6.6,0,0,1,.267.5v6a.6.6,0,1,1-1.191,0v-5.68l-2.092-1.384-2.092,1.384v5.758A.6.6,0,0,1,81.056,877.367Z" transform="translate(-80.461 -868.32)" fill="#6ec9cc"/>
      </g>
      <g id="グループ_2216" data-name="グループ 2216" transform="translate(7.576 11.096)">
        <path id="パス_729" data-name="パス 729" d="M88.733,884.586a.6.6,0,0,0,.6-.6v-3.145a.6.6,0,0,0-.6-.6H84.7a.6.6,0,0,0,0,1.192h3.437v2.55A.6.6,0,0,0,88.733,884.586Z" transform="translate(-84.105 -880.25)" fill="#6ec9cc"/>
      </g>
      <g id="グループ_2217" data-name="グループ 2217" transform="translate(0 5.959)">
        <path id="パス_730" data-name="パス 730" d="M76.555,884.218a.6.6,0,0,1-.6-.6v-8.3a.6.6,0,0,1,.6-.6h4.033a.6.6,0,0,1,.6.6v.38a.6.6,0,0,1-1.151.216H77.152v7.7A.6.6,0,0,1,76.555,884.218Z" transform="translate(-75.96 -874.727)" fill="#6ec9cc"/>
      </g>
      <g id="グループ_2218" data-name="グループ 2218" transform="translate(9.561 4.512)">
        <path id="パス_731" data-name="パス 731" d="M90.867,884.265a.6.6,0,0,1-.6-.6v-9.307H87.43v4.981a.6.6,0,0,1-1.191,0v-5.576a.6.6,0,0,1,.6-.6h4.032a.6.6,0,0,1,.6.6v9.9A.6.6,0,0,1,90.867,884.265Z" transform="translate(-86.239 -873.171)" fill="#6ec9cc"/>
      </g>
      <g id="グループ_2219" data-name="グループ 2219" transform="translate(3.496 8.203)">
        <path id="パス_732" data-name="パス 732" d="M80.314,884.38a.585.585,0,0,1-.6-.573v-6.1a.584.584,0,0,1,.6-.572h4.032a.584.584,0,0,1,.6.572v2.958a.6.6,0,0,1-1.192,0v-2.386H80.91v5.524A.585.585,0,0,1,80.314,884.38Z" transform="translate(-79.718 -877.139)" fill="#6ec9cc"/>
      </g>
    </g>
  </g>
</svg>
