<svg xmlns="http://www.w3.org/2000/svg" width="25.775" height="30.203" viewBox="0 0 25.775 30.203">
  <g id="グループ_2193" data-name="グループ 2193" transform="translate(-104.373 -774.418)">
    <g id="グループ_2192" data-name="グループ 2192" transform="translate(104.373 774.418)">
      <g id="グループ_2191" data-name="グループ 2191" transform="translate(0 11.416)">
        <path id="パス_711" data-name="パス 711" d="M118.058,796.24a.5.5,0,0,1-.248-.067l-2.047-1.184a2.615,2.615,0,0,1-1.3-2.259v-.321c-2.239-1.467-2.139-4.686-2.133-4.827a.495.495,0,0,1,.989.039c0,.03-.085,2.992,1.878,4.076a.494.494,0,0,1,.256.433v.6a1.625,1.625,0,0,0,.81,1.4l1.8,1.041,1.8-1.041a1.625,1.625,0,0,0,.81-1.4v-.6a.494.494,0,0,1,.256-.433c1.973-1.09,1.879-4.045,1.878-4.075a.5.5,0,0,1,.475-.515.485.485,0,0,1,.514.475c.005.141.106,3.359-2.133,4.827v.321a2.616,2.616,0,0,1-1.3,2.259l-2.049,1.184A.5.5,0,0,1,118.058,796.24Z" transform="translate(-105.17 -787.107)" fill="#6ec9cc"/>
        <path id="パス_712" data-name="パス 712" d="M115.722,799.232a.492.492,0,0,1-.354-.148l-2.238-2.29a.494.494,0,0,1-.122-.479A10.971,10.971,0,0,1,114.626,793a.495.495,0,1,1,.79.6,10.208,10.208,0,0,0-1.373,2.71l1.708,1.747,2.049-1.786a.5.5,0,0,1,.65,0l2.05,1.786,1.708-1.747a10.208,10.208,0,0,0-1.373-2.71.495.495,0,1,1,.79-.6,10.971,10.971,0,0,1,1.617,3.311.494.494,0,0,1-.122.479l-2.238,2.29a.5.5,0,0,1-.679.027l-2.077-1.809-2.077,1.809A.492.492,0,0,1,115.722,799.232Z" transform="translate(-105.237 -787.678)" fill="#6ec9cc"/>
        <path id="パス_713" data-name="パス 713" d="M104.867,806.7a.494.494,0,0,1-.494-.495v-5.661a3.481,3.481,0,0,1,2.368-3.3l6.08-2.058a.495.495,0,0,1,.318.937l-6.081,2.058a2.494,2.494,0,0,0-1.7,2.364v5.661A.5.5,0,0,1,104.867,806.7Z" transform="translate(-104.373 -787.914)" fill="#6ec9cc"/>
        <path id="パス_714" data-name="パス 714" d="M131.512,806.7a.5.5,0,0,1-.495-.495v-5.661a2.493,2.493,0,0,0-1.7-2.364l-6.081-2.058a.495.495,0,0,1,.318-.937l6.08,2.058a3.483,3.483,0,0,1,2.368,3.3v5.661A.5.5,0,0,1,131.512,806.7Z" transform="translate(-106.232 -787.914)" fill="#6ec9cc"/>
        <path id="パス_715" data-name="パス 715" d="M116.378,806.868a.51.51,0,0,1-.115-.013.5.5,0,0,1-.367-.6l1.338-5.6-.9-1.829a.5.5,0,0,1,.888-.439l.982,1.99a.492.492,0,0,1,.038.334l-1.378,5.776A.5.5,0,0,1,116.378,806.868Z" transform="translate(-105.527 -788.21)" fill="#6ec9cc"/>
        <path id="パス_716" data-name="パス 716" d="M120.752,806.868a.5.5,0,0,1-.481-.381l-1.378-5.776a.492.492,0,0,1,.038-.334l.982-1.99a.5.5,0,0,1,.888.439l-.9,1.829,1.338,5.6a.5.5,0,0,1-.367.6A.51.51,0,0,1,120.752,806.868Z" transform="translate(-105.828 -788.21)" fill="#6ec9cc"/>
      </g>
      <path id="パス_717" data-name="パス 717" d="M123.1,787.682a.495.495,0,0,1-.044-.988h0a1.529,1.529,0,0,0,1.321-1.551c.038-.459-.043-.69-.124-.749a.673.673,0,0,0-.5.038.5.5,0,0,1-.659-.642,5.38,5.38,0,0,0,.382-2.253l.015-.515a5.633,5.633,0,0,0-11.266.018,5.537,5.537,0,0,0,.4,2.75.5.5,0,0,1-.661.641.661.661,0,0,0-.493-.037c-.081.058-.162.29-.124.749a1.524,1.524,0,0,0,1.315,1.551.5.5,0,0,1,.454.534.489.489,0,0,1-.534.453,2.524,2.524,0,0,1-2.223-2.455,1.7,1.7,0,0,1,.543-1.641,1.178,1.178,0,0,1,.529-.2,7.415,7.415,0,0,1-.193-2.355,6.623,6.623,0,0,1,13.245.013l-.015.523a7.76,7.76,0,0,1-.19,1.817,1.184,1.184,0,0,1,.541.2,1.7,1.7,0,0,1,.543,1.64,2.525,2.525,0,0,1-2.223,2.456Z" transform="translate(-104.972 -774.418)" fill="#6ec9cc"/>
      <path id="パス_718" data-name="パス 718" d="M122.142,785.123a7.843,7.843,0,0,1-7.432-4.445.495.495,0,0,1,.921-.361,6.745,6.745,0,0,0,6.511,3.817.494.494,0,0,1,0,.989Z" transform="translate(-105.406 -774.978)" fill="#6ec9cc"/>
    </g>
  </g>
</svg>
