<svg xmlns="http://www.w3.org/2000/svg" width="23.631" height="29.9" viewBox="0 0 23.631 29.9">
  <g id="グループ_2176" data-name="グループ 2176" transform="translate(-65.044 -335.913)">
    <g id="グループ_2087" data-name="グループ 2087" transform="translate(65.044 335.913)">
      <g id="グループ_2086" data-name="グループ 2086">
        <g id="グループ_2085" data-name="グループ 2085">
          <g id="グループ_2080" data-name="グループ 2080">
            <g id="グループ_2067" data-name="グループ 2067">
              <path id="パス_578" data-name="パス 578" d="M84.035,339.8H66.986a1.943,1.943,0,0,1,0-3.886H84.035a1.943,1.943,0,1,1,0,3.886Zm-17.048-2.963a1.021,1.021,0,1,0,0,2.042H84.035a1.021,1.021,0,0,0,0-2.042Z" transform="translate(-65.044 -335.913)" fill="#6ec9cc"/>
            </g>
            <g id="グループ_2071" data-name="グループ 2071" transform="translate(4.844 1.432)">
              <g id="グループ_2068" data-name="グループ 2068">
                <path id="パス_579" data-name="パス 579" d="M70.977,338.477a.44.44,0,0,1-.461-.436v-.051a.461.461,0,0,1,.922,0A.484.484,0,0,1,70.977,338.477Z" transform="translate(-70.516 -337.53)" fill="#6ec9cc"/>
              </g>
              <g id="グループ_2069" data-name="グループ 2069" transform="translate(5.161)">
                <path id="パス_580" data-name="パス 580" d="M76.807,338.477a.44.44,0,0,1-.461-.436v-.051a.461.461,0,0,1,.922,0A.484.484,0,0,1,76.807,338.477Z" transform="translate(-76.346 -337.53)" fill="#6ec9cc"/>
              </g>
              <g id="グループ_2070" data-name="グループ 2070" transform="translate(10.323)">
                <path id="パス_581" data-name="パス 581" d="M82.637,338.477a.44.44,0,0,1-.461-.436v-.051a.461.461,0,0,1,.922,0A.484.484,0,0,1,82.637,338.477Z" transform="translate(-82.176 -337.53)" fill="#6ec9cc"/>
              </g>
            </g>
            <g id="グループ_2072" data-name="グループ 2072" transform="translate(0.002 1.482)">
              <path id="パス_582" data-name="パス 582" d="M75.053,363.759H67.974a2.933,2.933,0,0,1-2.928-2.933V338.048a.461.461,0,0,1,.922,0v22.778a2.01,2.01,0,0,0,2.005,2.011h7.079a.461.461,0,1,1,0,.922Z" transform="translate(-65.046 -337.587)" fill="#6ec9cc"/>
            </g>
            <g id="グループ_2073" data-name="グループ 2073" transform="translate(20.014 1.482)">
              <path id="パス_583" data-name="パス 583" d="M88.112,352.436a.461.461,0,0,1-.461-.461V338.048a.461.461,0,0,1,.923,0v13.927A.461.461,0,0,1,88.112,352.436Z" transform="translate(-87.651 -337.587)" fill="#6ec9cc"/>
            </g>
            <g id="グループ_2074" data-name="グループ 2074" transform="translate(2.767 6.372)">
              <path id="パス_584" data-name="パス 584" d="M83.109,344.033H68.63a.461.461,0,0,1,0-.923H83.109a.461.461,0,0,1,0,.923Z" transform="translate(-68.169 -343.11)" fill="#6ec9cc"/>
            </g>
            <g id="グループ_2075" data-name="グループ 2075" transform="translate(4.141 9.384)">
              <path id="パス_585" data-name="パス 585" d="M81.913,347.435H70.181a.461.461,0,0,1,0-.922H81.913a.461.461,0,1,1,0,.922Z" transform="translate(-69.721 -346.513)" fill="#6ec9cc"/>
            </g>
            <g id="グループ_2076" data-name="グループ 2076" transform="translate(4.141 12.397)">
              <path id="パス_586" data-name="パス 586" d="M81.913,350.838H70.181a.461.461,0,0,1,0-.922H81.913a.461.461,0,1,1,0,.922Z" transform="translate(-69.721 -349.916)" fill="#6ec9cc"/>
            </g>
            <g id="グループ_2077" data-name="グループ 2077" transform="translate(4.141 15.409)">
              <path id="パス_587" data-name="パス 587" d="M77.52,354.24H70.181a.461.461,0,0,1,0-.922H77.52a.461.461,0,1,1,0,.922Z" transform="translate(-69.721 -353.318)" fill="#6ec9cc"/>
            </g>
            <g id="グループ_2078" data-name="グループ 2078" transform="translate(4.141 18.422)">
              <path id="パス_588" data-name="パス 588" d="M75.116,357.643H70.181a.461.461,0,0,1,0-.922h4.935a.461.461,0,0,1,0,.922Z" transform="translate(-69.721 -356.721)" fill="#6ec9cc"/>
            </g>
            <g id="グループ_2079" data-name="グループ 2079" transform="translate(4.141 21.434)">
              <path id="パス_589" data-name="パス 589" d="M73.886,361.046h-3.7a.461.461,0,0,1,0-.922h3.7a.461.461,0,0,1,0,.922Z" transform="translate(-69.721 -360.124)" fill="#6ec9cc"/>
            </g>
          </g>
          <g id="グループ_2084" data-name="グループ 2084" transform="translate(10.188 16.644)">
            <g id="グループ_2081" data-name="グループ 2081" transform="translate(3.86 3.766)">
              <path id="パス_590" data-name="パス 590" d="M83.774,364.691a2.862,2.862,0,1,1,2.862-2.862A2.866,2.866,0,0,1,83.774,364.691Zm0-4.8a1.94,1.94,0,1,0,1.94,1.941A1.942,1.942,0,0,0,83.774,359.889Z" transform="translate(-80.912 -358.967)" fill="#6ec9cc"/>
            </g>
            <g id="グループ_2083" data-name="グループ 2083">
              <g id="グループ_2082" data-name="グループ 2082">
                <path id="パス_591" data-name="パス 591" d="M84.133,367.969H82.415a.459.459,0,0,1-.42-.272l-.418-.924a5.017,5.017,0,0,1-.518-.193l-.913.443a.463.463,0,0,1-.5-.061l-1.316-1.1a.461.461,0,0,1-.148-.48l.282-.992a5.036,5.036,0,0,1-.26-.459l-1.007-.255a.461.461,0,0,1-.342-.367l-.3-1.7a.46.46,0,0,1,.2-.46l.887-.6c.022-.165.049-.317.081-.464l-.629-.875a.46.46,0,0,1-.024-.5l.861-1.487a.467.467,0,0,1,.445-.228l1.1.111c.106-.1.216-.187.328-.272l.081-1.106a.462.462,0,0,1,.3-.4l1.615-.587a.46.46,0,0,1,.488.112l.78.8c.136-.005.275-.005.413,0l.774-.8a.463.463,0,0,1,.489-.113l1.619.588a.459.459,0,0,1,.3.4l.079,1.106c.117.09.227.182.328.274l1.1-.111a.459.459,0,0,1,.445.228l.857,1.488a.462.462,0,0,1-.026.5l-.628.871c.034.153.061.31.083.467l.884.6a.459.459,0,0,1,.2.46l-.3,1.691a.462.462,0,0,1-.342.367l-1.009.255a5.051,5.051,0,0,1-.26.454l.283,1a.461.461,0,0,1-.148.48l-1.317,1.1a.462.462,0,0,1-.5.062l-.909-.439a5.325,5.325,0,0,1-.523.189l-.418.924A.46.46,0,0,1,84.133,367.969Zm-1.421-.922h1.123l.383-.848a.462.462,0,0,1,.3-.257,4.273,4.273,0,0,0,.778-.282.463.463,0,0,1,.4,0l.835.4.861-.72-.259-.915a.462.462,0,0,1,.066-.391,4.075,4.075,0,0,0,.4-.691.46.46,0,0,1,.308-.258l.929-.235.193-1.1-.813-.552a.46.46,0,0,1-.2-.336,4.93,4.93,0,0,0-.135-.758.458.458,0,0,1,.072-.386l.578-.8-.56-.971-1.015.1a.464.464,0,0,1-.373-.133,4.386,4.386,0,0,0-.552-.462.46.46,0,0,1-.19-.342l-.073-1.019-1.056-.382-.714.74a.45.45,0,0,1-.373.139,3.976,3.976,0,0,0-.7,0,.455.455,0,0,1-.372-.138l-.72-.741-1.054.383-.076,1.02a.46.46,0,0,1-.2.344,4.61,4.61,0,0,0-.552.458.449.449,0,0,1-.367.128l-1.011-.1-.564.972.579.807a.46.46,0,0,1,.07.39,4.435,4.435,0,0,0-.134.74.469.469,0,0,1-.2.344l-.814.552.194,1.108.93.235a.457.457,0,0,1,.307.259,4.218,4.218,0,0,0,.395.7.461.461,0,0,1,.067.392l-.259.909.86.72.84-.408a.462.462,0,0,1,.4,0,4,4,0,0,0,.768.286.462.462,0,0,1,.3.258Z" transform="translate(-76.552 -354.713)" fill="#6ec9cc"/>
              </g>
            </g>
          </g>
        </g>
      </g>
    </g>
  </g>
</svg>
