<svg xmlns="http://www.w3.org/2000/svg" width="32.082" height="31.074" viewBox="0 0 32.082 31.074">
  <g id="send_of_materials_" data-name="send of materials
" transform="translate(-100.643 -584.886)">
    <g id="_Grupo_" data-name="&lt;Grupo&gt;" transform="translate(100.643 596.409)">
      <g id="グループ_2175" data-name="グループ 2175">
        <path id="パス_649" data-name="パス 649" d="M118.286,602.51a.5.5,0,0,1-.121-.988l12.031-3.008a.5.5,0,0,1,.243.973l-12.031,3.008A.512.512,0,0,1,118.286,602.51Z" transform="translate(-102.246 -597.496)" fill="#6ec9cc"/>
        <path id="パス_650" data-name="パス 650" d="M118.287,617.615a.5.5,0,0,1-.5-.5v-8.522a.5.5,0,0,1,1,0v7.8l11.028-4.11v-7.2a.5.5,0,0,1,1,0v7.547a.5.5,0,0,1-.326.47l-12.031,4.483A.49.49,0,0,1,118.287,617.615Z" transform="translate(-102.246 -598.064)" fill="#6ec9cc"/>
        <path id="パス_651" data-name="パス 651" d="M121.8,607.419a.5.5,0,0,1-.411-.214l-3.509-5.013a.5.5,0,1,1,.821-.575l3.294,4.705,10.961-3.653-2.9-3.315-4.846-.969a.5.5,0,0,1-.393-.59.5.5,0,0,1,.59-.393l5.013,1a.5.5,0,0,1,.279.161l3.509,4.01a.5.5,0,0,1-.218.806l-12.031,4.01A.506.506,0,0,1,121.8,607.419Z" transform="translate(-102.246 -597.392)" fill="#6ec9cc"/>
        <path id="パス_652" data-name="パス 652" d="M117.046,602.51a.511.511,0,0,1-.121-.015l-12.031-3.008a.5.5,0,1,1,.243-.973l12.031,3.008a.5.5,0,0,1-.121.988Z" transform="translate(-101.005 -597.496)" fill="#6ec9cc"/>
        <path id="パス_653" data-name="パス 653" d="M117.046,617.615a.49.49,0,0,1-.175-.032L104.84,613.1a.5.5,0,0,1-.326-.47v-7.547a.5.5,0,1,1,1,0v7.2l11.7,4.362a.5.5,0,0,1-.175.971Z" transform="translate(-101.005 -598.064)" fill="#6ec9cc"/>
        <path id="パス_654" data-name="パス 654" d="M106.833,605.305a.485.485,0,0,1-.159-.026l-5.689-1.9a.5.5,0,0,1-.325-.344.5.5,0,0,1,.107-.462l3.509-4.01a.5.5,0,0,1,.278-.161l5.013-1a.5.5,0,0,1,.2.984l-4.846.969-2.9,3.315,4.974,1.658a.5.5,0,0,1-.159.977Z" transform="translate(-100.643 -597.392)" fill="#6ec9cc"/>
        <path id="パス_655" data-name="パス 655" d="M114.111,607.833a.506.506,0,0,1-.159-.026l-2.959-.986a.5.5,0,0,1,.317-.951l2.6.868,3.295-4.705a.5.5,0,1,1,.821.575l-3.509,5.012A.5.5,0,0,1,114.111,607.833Z" transform="translate(-101.579 -597.806)" fill="#6ec9cc"/>
      </g>
    </g>
    <path id="パス_656" data-name="パス 656" d="M118.132,595.874a2.006,2.006,0,1,1,2.005-2.005A2.008,2.008,0,0,1,118.132,595.874Zm0-3.008a1,1,0,1,0,1,1A1,1,0,0,0,118.132,592.866Z" transform="translate(-1.448 -2.466)" fill="#6ec9cc"/>
    <path id="パス_657" data-name="パス 657" d="M118.541,599.92h-1.749a.5.5,0,0,1-.5-.462l-.1-1.266a5,5,0,0,1-.868-.361l-.966.826a.5.5,0,0,1-.68-.027l-1.237-1.236a.5.5,0,0,1-.027-.681l.827-.966a4.942,4.942,0,0,1-.361-.868l-1.267-.1a.5.5,0,0,1-.462-.5v-1.75a.5.5,0,0,1,.462-.5l1.266-.1a4.993,4.993,0,0,1,.361-.867l-.826-.967a.5.5,0,0,1,.027-.68l1.236-1.237a.5.5,0,0,1,.68-.027l.967.826a5.031,5.031,0,0,1,.868-.361l.1-1.266a.5.5,0,0,1,.5-.462h1.749a.5.5,0,0,1,.5.462l.1,1.266a4.972,4.972,0,0,1,.868.361l.967-.826a.5.5,0,0,1,.68.027l1.237,1.237a.5.5,0,0,1,.026.68l-.826.967a4.933,4.933,0,0,1,.361.867l1.266.1a.5.5,0,0,1,.462.5v1.75a.5.5,0,0,1-.462.5l-1.266.1a4.971,4.971,0,0,1-.361.868l.826.966a.5.5,0,0,1-.026.681l-1.237,1.236a.5.5,0,0,1-.68.027l-.967-.826a4.967,4.967,0,0,1-.868.361l-.1,1.266A.5.5,0,0,1,118.541,599.92Zm-1.286-1h.823l.092-1.158a.5.5,0,0,1,.388-.449,4,4,0,0,0,1.24-.515.5.5,0,0,1,.593.043l.884.755.582-.582-.755-.884a.5.5,0,0,1-.043-.593,3.993,3.993,0,0,0,.515-1.24.5.5,0,0,1,.45-.389l1.157-.091v-.823l-1.157-.092a.5.5,0,0,1-.45-.389,3.96,3.96,0,0,0-.515-1.239.5.5,0,0,1,.043-.594l.755-.884-.582-.582-.884.755a.506.506,0,0,1-.593.043,3.983,3.983,0,0,0-1.24-.515.5.5,0,0,1-.388-.449l-.092-1.158h-.823l-.092,1.158a.5.5,0,0,1-.389.449,3.978,3.978,0,0,0-1.239.515.5.5,0,0,1-.593-.043l-.885-.755-.582.582.755.885a.5.5,0,0,1,.044.592,3.973,3.973,0,0,0-.516,1.24.5.5,0,0,1-.449.389l-1.158.092v.823l1.158.091a.5.5,0,0,1,.449.389,3.989,3.989,0,0,0,.516,1.24.5.5,0,0,1-.044.593l-.755.884.582.582.885-.755a.5.5,0,0,1,.593-.043,4,4,0,0,0,1.239.515.5.5,0,0,1,.389.449Z" transform="translate(-0.983 -2)" fill="#6ec9cc"/>
  </g>
</svg>
