<svg xmlns="http://www.w3.org/2000/svg" width="15.75" height="15.75" viewBox="0 0 15.75 15.75">
  <g id="document-pdf" transform="translate(-1.125 -1.125)">
    <path id="パス_882" data-name="パス 882" d="M16.875,10.125V9H13.5v5.625h1.125v-2.25h1.688V11.25H14.625V10.125Z" fill="#4aa9ac"/>
    <path id="パス_883" data-name="パス 883" d="M10.688,14.625H8.438V9h2.25a1.689,1.689,0,0,1,1.688,1.688v2.25a1.689,1.689,0,0,1-1.688,1.688ZM9.563,13.5h1.125a.563.563,0,0,0,.563-.563v-2.25a.563.563,0,0,0-.563-.563H9.563Z" fill="#4aa9ac"/>
    <path id="パス_884" data-name="パス 884" d="M6.188,9H3.375v5.625H4.5V12.937H6.188a1.127,1.127,0,0,0,1.125-1.125V10.124A1.126,1.126,0,0,0,6.188,9ZM4.5,11.813V10.125H6.188v1.688Z" fill="#4aa9ac"/>
    <path id="パス_885" data-name="パス 885" d="M12.375,7.875V5.625a.512.512,0,0,0-.169-.394L8.268,1.293a.511.511,0,0,0-.393-.168H2.25A1.128,1.128,0,0,0,1.125,2.25v13.5A1.125,1.125,0,0,0,2.25,16.875h9V15.75h-9V2.25h4.5V5.625A1.128,1.128,0,0,0,7.875,6.75H11.25V7.875Zm-4.5-2.25V2.475l3.15,3.15Z" fill="#4aa9ac"/>
  </g>
</svg>
